<?xml version="1.0" standalone="no"?>
<!DOCTYPE svg PUBLIC "-//W3C//DTD SVG 20010904//EN"
 "http://www.w3.org/TR/2001/REC-SVG-20010904/DTD/svg10.dtd">
<svg version="1.0" xmlns="http://www.w3.org/2000/svg"
 width="512.000000pt" height="512.000000pt" viewBox="0 0 512.000000 512.000000"
 preserveAspectRatio="xMidYMid meet">

<g transform="translate(0.000000,512.000000) scale(0.100000,-0.100000)"
fill="#000000" stroke="none">
<path d="M2297 4994 c-3 -4 -39 -8 -78 -10 -40 -2 -77 -8 -82 -13 -6 -6 4 -8
29 -5 22 3 59 6 84 7 25 1 50 5 55 9 16 10 357 7 440 -3 39 -5 94 -11 124 -14
30 -3 59 -9 65 -13 15 -11 56 -13 56 -3 0 8 -17 12 -195 36 -100 14 -486 21
-498 9z"/>
<path d="M2053 4963 c-13 -2 -23 -9 -23 -14 0 -6 -4 -8 -9 -5 -5 4 -41 -2 -80
-11 -50 -12 -71 -21 -71 -32 0 -11 3 -12 8 -5 7 12 29 20 72 28 14 2 32 7 41
11 9 3 23 -1 33 -10 15 -15 16 -15 16 4 0 12 5 21 10 21 6 0 10 -5 10 -12 0
-7 5 -5 13 4 6 9 21 18 32 21 15 4 14 5 -5 4 -14 0 -35 -2 -47 -4z"/>
<path d="M2670 4966 c0 -2 7 -9 15 -16 9 -7 15 -8 15 -2 0 5 -7 12 -15 16 -8
3 -15 4 -15 2z"/>
<path d="M2645 4950 c-3 -5 -1 -10 4 -10 6 0 11 5 11 10 0 6 -2 10 -4 10 -3 0
-8 -4 -11 -10z"/>
<path d="M3000 4940 c0 -5 6 -10 13 -11 58 -5 76 -9 102 -20 17 -7 36 -11 43
-10 6 1 12 -3 12 -9 0 -6 4 -9 8 -6 17 10 82 -18 109 -47 19 -21 22 -28 11
-24 -24 9 -23 0 1 -13 29 -15 35 5 9 29 -24 23 -21 26 17 11 14 -5 24 -14 20
-19 -3 -5 -1 -12 4 -15 5 -4 12 -2 16 4 4 6 20 3 43 -9 20 -10 42 -20 47 -20
6 -1 9 -12 8 -24 -1 -15 0 -16 3 -4 3 9 10 17 15 17 5 0 9 4 9 9 0 11 -56 32
-64 24 -3 -4 -6 -1 -6 5 0 7 -3 11 -7 10 -7 -1 -61 20 -106 44 -10 5 -22 6
-27 3 -6 -4 -10 -2 -10 3 0 11 -217 75 -230 67 -5 -3 -11 -1 -15 5 -8 13 -25
13 -25 0z"/>
<path d="M1988 4913 c7 -3 16 -2 19 1 4 3 -2 6 -13 5 -11 0 -14 -3 -6 -6z"/>
<path d="M2309 4911 c-2 -6 -19 -14 -38 -17 -25 -5 -32 -4 -27 5 5 7 -6 6 -31
-4 -22 -9 -58 -17 -81 -19 -23 -2 -45 -6 -48 -9 -3 -3 -12 -3 -19 -1 -7 3 -27
-2 -44 -11 -17 -8 -31 -13 -31 -11 0 3 -15 0 -32 -6 -18 -5 -43 -10 -55 -9
-13 0 -23 -3 -23 -8 0 -5 -18 -12 -40 -16 -22 -4 -40 -10 -40 -14 0 -5 20 -4
45 2 25 6 45 14 45 19 0 5 3 7 8 4 4 -2 32 2 62 10 164 44 265 56 502 61 185
4 238 8 242 19 4 10 0 11 -20 4 -31 -12 -357 -9 -365 3 -4 5 -8 4 -10 -2z"/>
<path d="M1838 4903 c7 -3 16 -2 19 1 4 3 -2 6 -13 5 -11 0 -14 -3 -6 -6z"/>
<path d="M1961 4894 c0 -11 3 -14 6 -6 3 7 2 16 -1 19 -3 4 -6 -2 -5 -13z"/>
<path d="M3057 4903 c-3 -5 8 -8 25 -9 20 -1 25 2 16 7 -16 11 -35 11 -41 2z"/>
<path d="M1800 4889 c0 -5 5 -7 10 -4 6 3 10 8 10 11 0 2 -4 4 -10 4 -5 0 -10
-5 -10 -11z"/>
<path d="M1899 4883 c-13 -17 -13 -17 6 -3 11 8 22 16 24 17 2 2 0 3 -6 3 -6
0 -17 -8 -24 -17z"/>
<path d="M2710 4888 c0 -4 15 -8 33 -8 17 0 50 -2 72 -5 22 -3 36 -3 30 0 -20
10 -135 21 -135 13z"/>
<path d="M2991 4884 c0 -11 3 -14 6 -6 3 7 2 16 -1 19 -3 4 -6 -2 -5 -13z"/>
<path d="M1757 4883 c-14 -4 -18 -11 -14 -29 4 -21 1 -24 -17 -18 -25 8 -20 1
11 -15 20 -10 21 -9 17 19 -4 23 -2 29 9 24 8 -3 17 2 20 10 7 16 5 17 -26 9z"/>
<path d="M1836 4879 c3 -5 9 -7 14 -4 5 3 11 -3 14 -12 4 -15 5 -15 3 1 -1 11
-10 20 -20 22 -9 1 -15 -2 -11 -7z"/>
<path d="M2885 4881 c6 -11 4 -13 -8 -8 -10 3 -17 2 -17 -3 0 -6 17 -11 38
-12 61 -2 66 -3 80 -12 13 -8 30 -1 20 9 -2 3 -24 7 -48 10 -24 3 -51 11 -59
18 -12 10 -13 9 -6 -2z"/>
<path d="M1689 4855 c-14 -8 -57 -26 -95 -40 -37 -14 -75 -32 -84 -39 -8 -8
-26 -17 -40 -21 -14 -4 -33 -14 -42 -23 -10 -8 -18 -12 -18 -8 0 4 -10 -2 -21
-13 -12 -11 -48 -32 -80 -48 -32 -15 -59 -32 -59 -36 0 -4 9 -3 20 3 11 6 26
8 32 4 6 -4 8 -3 5 3 -4 6 5 15 19 22 33 15 34 14 29 -9 -2 -12 0 -18 6 -15 5
4 7 10 4 15 -3 5 3 13 12 19 11 6 13 11 5 11 -7 0 -10 5 -7 10 4 6 11 8 16 5
5 -4 9 -1 9 4 0 6 5 11 11 11 5 0 7 -4 4 -10 -3 -5 -1 -10 5 -10 7 0 10 7 6
15 -3 10 5 20 24 30 35 18 64 20 54 3 -4 -7 -3 -8 5 -4 6 4 9 11 6 16 -3 5 6
17 21 26 22 15 27 15 35 3 7 -12 9 -11 9 2 0 18 26 33 41 23 5 -3 9 1 9 8 0 9
3 9 10 -2 8 -13 10 -12 10 4 0 12 5 16 16 12 8 -3 13 -2 9 3 -3 5 8 12 25 16
16 4 30 11 30 16 0 12 -10 11 -41 -6z"/>
<path d="M3038 4863 c7 -3 16 -2 19 1 4 3 -2 6 -13 5 -11 0 -14 -3 -6 -6z"/>
<path d="M3078 4853 c7 -3 16 -2 19 1 4 3 -2 6 -13 5 -11 0 -14 -3 -6 -6z"/>
<path d="M3015 4839 c4 -6 13 -8 21 -5 7 3 16 1 19 -5 4 -5 11 -6 18 -2 7 4 4
9 -9 14 -29 11 -56 11 -49 -2z"/>
<path d="M3104 4815 c11 -8 28 -15 39 -15 10 0 28 -5 39 -11 14 -8 23 -8 29 0
5 6 7 9 3 7 -3 -3 -31 4 -61 15 -67 23 -74 23 -49 4z"/>
<path d="M1710 4796 c0 -2 8 -10 18 -17 15 -13 16 -12 3 4 -13 16 -21 21 -21
13z"/>
<path d="M1748 4789 c6 -9 9 -19 5 -22 -3 -4 -2 -7 3 -7 13 0 34 21 34 33 0 5
-6 5 -13 -2 -10 -8 -17 -7 -27 2 -12 10 -12 9 -2 -4z"/>
<path d="M3226 4781 c-3 -3 11 -11 30 -17 19 -6 34 -8 34 -5 0 10 -59 30 -64
22z"/>
<path d="M3298 4778 c6 -6 18 -8 28 -6 14 3 12 5 -9 10 -19 3 -25 2 -19 -4z"/>
<path d="M1688 4752 c3 -10 1 -13 -6 -8 -7 4 -12 2 -12 -3 0 -16 15 -13 30 3
6 8 19 12 28 9 9 -3 14 -3 10 1 -3 4 -17 9 -31 10 -19 2 -24 -1 -19 -12z"/>
<path d="M3505 4759 c4 -5 15 -9 26 -9 11 0 22 -7 25 -15 4 -8 10 -13 14 -10
4 3 19 -4 33 -15 14 -11 28 -20 32 -20 17 0 134 -83 129 -92 -3 -4 -2 -8 3 -7
20 3 34 -2 28 -11 -3 -5 -2 -10 4 -10 20 0 21 19 2 29 -11 6 -25 17 -33 24 -7
7 -30 21 -50 30 -21 10 -38 22 -38 27 0 6 -6 10 -14 10 -8 0 -21 6 -28 14 -30
30 -147 79 -133 55z"/>
<path d="M1620 4749 c0 -5 5 -7 10 -4 6 3 10 8 10 11 0 2 -4 4 -10 4 -5 0 -10
-5 -10 -11z"/>
<path d="M3300 4751 c0 -11 31 -24 38 -16 3 3 -1 5 -9 5 -11 0 -11 2 1 10 12
8 11 10 -7 10 -13 0 -23 -4 -23 -9z"/>
<path d="M3350 4738 c0 -9 14 -21 30 -27 18 -6 30 -6 30 0 0 5 -5 9 -12 9 -6
0 -20 7 -30 17 -16 14 -18 14 -18 1z"/>
<path d="M1579 4728 c-1 -7 -1 -17 0 -22 1 -5 -5 -6 -14 -2 -11 4 -14 2 -9 -6
5 -7 2 -9 -8 -5 -9 3 -23 -2 -33 -13 -17 -18 -17 -19 1 -16 28 6 133 56 139
67 4 5 1 9 -4 9 -6 0 -11 -5 -11 -11 0 -5 -4 -8 -9 -4 -5 3 -12 1 -16 -5 -3
-5 -13 -10 -22 -10 -13 0 -13 3 -3 15 9 10 9 15 1 15 -6 0 -12 -6 -12 -12z"/>
<path d="M3420 4710 c0 -9 27 -28 63 -45 84 -41 84 -41 68 -22 -7 10 -20 17
-28 17 -8 0 -11 5 -7 12 5 8 2 9 -9 5 -12 -4 -17 -1 -18 11 0 10 -3 12 -6 5
-3 -10 -10 -10 -26 -1 -12 6 -25 16 -29 22 -5 7 -8 6 -8 -4z"/>
<path d="M1483 4670 c-3 -11 -10 -20 -15 -20 -5 0 -6 5 -2 12 4 7 3 8 -5 4 -6
-4 -9 -12 -5 -17 3 -6 -13 -17 -35 -26 -23 -9 -41 -20 -41 -25 0 -7 19 0 60
24 8 5 22 11 32 14 9 3 18 17 21 30 5 29 -3 32 -10 4z"/>
<path d="M3608 4678 c5 -5 16 -8 23 -6 8 3 3 7 -10 11 -17 4 -21 3 -13 -5z"/>
<path d="M1413 4673 c-15 -6 -18 -43 -3 -43 5 0 6 8 3 17 -5 12 -2 15 10 10
11 -4 14 -2 10 9 -3 7 -6 14 -7 13 0 0 -7 -3 -13 -6z"/>
<path d="M3594 4637 c-19 -10 -20 -14 -8 -25 8 -7 14 -10 14 -6 0 3 7 1 15 -6
13 -11 14 -10 9 4 -3 9 -14 16 -23 16 -13 0 -13 2 -2 9 8 5 21 7 29 3 10 -3
13 -1 8 6 -9 15 -15 15 -42 -1z"/>
<path d="M3656 4642 c-3 -5 1 -9 9 -9 8 0 12 4 9 9 -3 4 -7 8 -9 8 -2 0 -6 -4
-9 -8z"/>
<path d="M1277 4611 c6 -3 12 -12 14 -19 3 -8 8 -6 16 7 10 16 9 19 -14 19
-14 0 -21 -3 -16 -7z"/>
<path d="M1330 4600 c-24 -15 -7 -18 20 -3 14 7 18 13 10 13 -8 0 -22 -4 -30
-10z"/>
<path d="M1186 4585 c-3 -8 -12 -15 -21 -15 -8 0 -15 -4 -15 -10 0 -5 -16 -20
-35 -33 -40 -27 -124 -98 -170 -143 -17 -17 -44 -39 -58 -49 -15 -9 -27 -23
-27 -29 0 -7 -23 -34 -52 -60 -41 -38 -49 -49 -37 -57 19 -12 29 -11 29 2 0 5
-4 7 -10 4 -17 -11 -11 8 11 31 12 13 28 20 37 17 10 -4 13 -2 8 5 -7 12 23
54 35 47 4 -3 6 3 5 12 0 9 5 18 13 21 9 3 11 0 6 -8 -5 -9 -4 -11 4 -6 6 4 9
11 6 16 -6 10 23 35 32 26 4 -4 1 -12 -7 -17 -13 -9 -13 -10 0 -6 8 2 16 14
16 26 1 22 30 61 46 61 5 0 7 -4 4 -8 -2 -4 3 -8 13 -8 12 0 18 7 16 21 -1 22
70 95 93 95 5 0 18 11 30 25 13 14 28 23 34 19 7 -5 8 -3 3 6 -6 9 -2 10 16 5
21 -7 22 -6 7 9 -20 20 -24 20 -32 1z m-156 -155 c0 -5 -4 -10 -10 -10 -5 0
-10 5 -10 10 0 6 5 10 10 10 6 0 10 -4 10 -10z"/>
<path d="M1334 4568 c-19 -23 -19 -23 2 -5 11 9 24 14 27 10 4 -3 7 -1 7 5 0
19 -15 14 -36 -10z"/>
<path d="M2375 4583 c-38 -2 -74 -9 -80 -14 -7 -7 -2 -9 15 -5 74 17 451 6
506 -14 32 -13 41 -13 28 0 -22 22 -312 42 -469 33z"/>
<path d="M3664 4579 c-3 -6 -1 -16 4 -21 8 -8 11 -5 9 11 -1 24 -3 25 -13 10z"/>
<path d="M3826 4573 c-12 -12 -6 -22 11 -16 11 4 14 3 9 -6 -4 -6 -3 -10 2 -9
9 3 62 -33 95 -66 15 -14 16 -20 7 -26 -9 -6 -7 -11 8 -19 30 -16 39 -14 16 4
-15 11 -16 14 -3 15 18 0 79 -66 79 -86 0 -8 4 -14 10 -14 5 0 6 8 2 19 -7 19
-68 91 -77 91 -5 0 -51 38 -86 72 -10 9 -20 14 -23 11 -3 -4 -6 -1 -6 5 0 14
-35 34 -44 25z"/>
<path d="M2148 4552 c-43 -8 -75 -19 -71 -25 3 -5 -3 -6 -14 -3 -21 7 -80 -10
-71 -20 3 -2 17 0 30 7 19 8 31 8 47 0 16 -9 21 -9 19 1 -2 7 15 15 42 21 25
5 70 15 100 22 78 19 15 17 -82 -3z"/>
<path d="M3700 4546 c10 -13 40 -12 40 1 0 3 -7 3 -15 -1 -8 -3 -15 -1 -15 4
0 6 -5 10 -11 10 -8 0 -8 -4 1 -14z"/>
<path d="M1285 4540 c-4 -6 -11 -7 -17 -4 -7 4 -8 2 -4 -4 4 -7 1 -12 -7 -12
-7 0 -24 -11 -38 -26 -21 -22 -21 -24 -4 -18 11 4 24 13 28 21 4 7 12 13 17
13 6 0 19 9 30 20 11 11 16 20 11 20 -6 0 -13 -5 -16 -10z"/>
<path d="M2860 4540 c0 -5 9 -10 21 -10 11 0 17 5 14 10 -3 6 -13 10 -21 10
-8 0 -14 -4 -14 -10z"/>
<path d="M2916 4530 c6 -6 25 -14 42 -19 26 -8 32 -7 32 6 0 10 -6 14 -20 10
-11 -3 -23 -1 -26 4 -3 5 -13 9 -22 9 -11 0 -13 -3 -6 -10z"/>
<path d="M3746 4511 c10 -10 21 -17 23 -15 6 6 -20 34 -32 34 -6 0 -2 -8 9
-19z"/>
<path d="M3777 4513 c7 -21 70 -83 83 -83 5 0 16 -10 24 -22 9 -12 16 -17 16
-10 0 15 -24 42 -37 42 -16 0 -73 59 -73 74 0 9 -4 16 -10 16 -5 0 -7 -8 -3
-17z"/>
<path d="M3836 4518 c3 -5 10 -6 15 -3 13 9 11 12 -6 12 -8 0 -12 -4 -9 -9z"/>
<path d="M1200 4510 c0 -5 5 -10 10 -10 6 0 10 5 10 10 0 6 -4 10 -10 10 -5 0
-10 -4 -10 -10z"/>
<path d="M2828 4513 c7 -3 16 -2 19 1 4 3 -2 6 -13 5 -11 0 -14 -3 -6 -6z"/>
<path d="M2875 4511 c-3 -5 0 -13 6 -17 7 -4 9 -3 5 4 -3 5 0 13 6 15 9 4 10
6 1 6 -6 1 -14 -3 -18 -8z"/>
<path d="M3012 4500 c14 -22 24 -19 15 5 -4 8 -11 15 -17 15 -6 0 -6 -7 2 -20z"/>
<path d="M3857 4500 c-14 -14 -14 -17 -2 -17 8 0 15 4 15 9 0 5 9 4 20 -2 25
-13 26 -9 2 11 -16 13 -19 13 -35 -1z"/>
<path d="M1910 4490 c-80 -27 -143 -53 -169 -70 -22 -15 -21 -15 19 -16 40 -1
41 0 18 13 l-23 14 23 -4 c12 -3 22 -2 22 2 0 5 19 15 42 24 33 13 44 14 50 4
6 -9 8 -8 8 4 0 11 12 19 35 23 19 4 35 11 35 16 0 6 -1 10 -2 9 -2 0 -28 -8
-58 -19z"/>
<path d="M3046 4497 c2 -7 18 -13 34 -14 16 -1 43 -9 61 -18 17 -9 33 -14 36
-12 7 8 -25 23 -84 40 -37 11 -50 12 -47 4z"/>
<path d="M2820 4489 c0 -5 5 -7 10 -4 6 3 10 8 10 11 0 2 -4 4 -10 4 -5 0 -10
-5 -10 -11z"/>
<path d="M1135 4470 c-3 -5 -2 -10 4 -10 5 0 13 5 16 10 3 6 2 10 -4 10 -5 0
-13 -4 -16 -10z"/>
<path d="M1142 4436 c-16 -18 -37 -38 -47 -43 -9 -6 -39 -31 -65 -57 -29 -28
-59 -49 -75 -51 -29 -3 -48 -22 -40 -42 2 -7 0 -13 -5 -13 -6 0 -10 -6 -10
-13 0 -19 -53 -63 -75 -61 -14 1 -21 -5 -21 -17 0 -10 4 -15 8 -13 13 8 9 -5
-8 -32 -10 -14 -23 -23 -31 -20 -9 4 -11 1 -7 -5 4 -6 0 -15 -7 -20 -8 -5 -9
-9 -4 -9 15 1 37 21 63 58 12 17 18 32 12 32 -5 0 -10 5 -10 11 0 6 7 8 15 5
10 -3 28 8 51 32 57 61 121 125 166 165 24 21 66 58 93 82 28 25 45 45 39 45
-7 0 -25 -15 -42 -34z m-197 -176 c-10 -11 -20 -18 -23 -15 -7 6 18 35 31 35
5 0 2 -9 -8 -20z"/>
<path d="M3880 4460 c0 -5 5 -10 11 -10 5 0 7 5 4 10 -3 6 -8 10 -11 10 -2 0
-4 -4 -4 -10z"/>
<path d="M3120 4449 c0 -5 6 -9 13 -9 8 0 7 -4 -3 -10 -11 -8 -7 -9 15 -4 17
4 31 8 32 8 1 1 -11 7 -27 13 -17 6 -30 7 -30 2z"/>
<path d="M3190 4450 c0 -5 7 -10 15 -10 8 0 15 -8 15 -17 0 -15 2 -16 10 -3 8
13 14 8 12 -11 0 -3 9 -5 21 -5 29 0 107 -33 107 -46 0 -5 -5 -6 -12 -2 -6 4
-8 3 -5 -4 4 -5 16 -8 27 -5 19 5 19 6 -5 24 -22 18 -84 48 -102 50 -5 1 -25
10 -45 20 -21 11 -38 15 -38 9z"/>
<path d="M3190 4419 c0 -5 5 -7 10 -4 6 3 10 8 10 11 0 2 -4 4 -10 4 -5 0 -10
-5 -10 -11z"/>
<path d="M1900 4409 c0 -5 5 -7 10 -4 6 3 10 8 10 11 0 2 -4 4 -10 4 -5 0 -10
-5 -10 -11z"/>
<path d="M1681 4401 c-7 -5 -12 -13 -10 -18 2 -5 12 -1 22 9 18 19 12 24 -12
9z"/>
<path d="M3910 4404 c0 -13 78 -94 90 -94 5 0 27 -21 49 -47 23 -25 44 -44 46
-41 3 3 -1 11 -10 18 -17 15 -21 35 -3 24 7 -4 8 -3 4 4 -4 6 -13 9 -22 5 -11
-4 -14 0 -11 18 2 13 2 18 0 12 -6 -17 -11 -16 -28 1 -8 7 -11 17 -7 20 3 4
-2 4 -12 0 -15 -6 -17 -4 -11 6 5 8 4 11 -2 7 -6 -4 -18 2 -28 13 -15 17 -16
22 -4 37 13 17 13 17 -5 3 -16 -13 -20 -12 -32 5 -8 10 -14 14 -14 9z"/>
<path d="M4070 4381 c0 -3 23 -29 51 -57 46 -46 49 -53 38 -72 -7 -11 -19 -18
-28 -15 -13 4 -13 3 -2 -5 7 -5 11 -14 8 -19 -3 -5 0 -10 8 -10 8 0 12 4 10 8
-8 12 5 37 18 35 20 -3 78 -67 71 -78 -4 -6 -2 -8 4 -4 5 3 20 -9 31 -28 12
-19 28 -37 37 -40 10 -4 13 -13 9 -28 -5 -18 -4 -20 4 -8 6 8 11 10 11 4 0 -5
8 -19 18 -30 33 -35 54 -73 47 -84 -8 -13 14 -42 26 -34 5 3 12 -3 16 -13 4
-10 14 -24 22 -31 14 -12 14 -13 -1 -8 -10 3 -18 2 -18 -3 0 -5 9 -11 19 -14
11 -3 30 -26 42 -51 11 -25 25 -46 29 -46 9 0 -30 81 -44 92 -5 3 -11 13 -12
22 -1 8 -18 36 -38 62 -20 26 -36 52 -36 59 0 6 -8 20 -17 31 -10 10 -31 37
-48 59 -42 57 -52 69 -135 164 -57 66 -140 150 -140 142z m354 -447 c3 -8 2
-12 -4 -9 -6 3 -10 10 -10 16 0 14 7 11 14 -7z"/>
<path d="M1630 4370 c0 -5 -7 -10 -15 -10 -8 0 -15 -4 -15 -9 0 -5 -9 -13 -20
-16 -11 -3 -20 -11 -20 -18 0 -8 3 -8 12 1 7 7 20 12 31 12 10 0 15 5 12 10
-4 7 6 9 28 7 32 -4 34 -2 24 14 -13 20 -37 26 -37 9z"/>
<path d="M3986 4362 c-3 -5 1 -9 9 -9 8 0 12 4 9 9 -3 4 -7 8 -9 8 -2 0 -6 -4
-9 -8z"/>
<path d="M3418 4329 c17 -5 32 -15 32 -21 0 -6 3 -9 6 -5 3 3 15 -3 27 -14 11
-10 27 -19 34 -19 8 0 12 -4 8 -9 -3 -5 0 -13 6 -17 8 -4 9 -3 5 4 -13 21 12
12 41 -14 15 -14 28 -33 28 -41 0 -9 6 -17 13 -19 7 -1 8 0 2 3 -5 2 -10 9
-10 14 0 14 53 -16 91 -50 29 -27 31 -32 19 -48 -12 -15 -12 -16 0 -5 17 14
34 16 25 2 -3 -5 0 -7 7 -5 16 6 75 -51 64 -62 -4 -4 -11 -1 -16 7 -6 10 -10
11 -10 3 0 -15 37 -36 49 -29 4 3 19 -6 31 -19 13 -14 27 -25 32 -25 9 0 -45
53 -149 147 -79 71 -213 173 -229 173 -6 0 -23 12 -37 26 -17 17 -40 27 -64
30 l-38 3 33 -10z"/>
<path d="M4078 4333 c10 -4 10 -8 0 -21 -12 -15 -11 -16 4 -3 19 14 15 32 -5
30 -8 0 -8 -2 1 -6z"/>
<path d="M1540 4321 c0 -8 -26 -26 -110 -74 -19 -10 -41 -28 -48 -38 -7 -11
-17 -17 -21 -15 -4 3 -12 -4 -19 -15 -17 -27 -7 -24 29 9 33 30 94 69 122 78
9 4 17 10 17 14 0 4 9 10 20 13 17 4 30 37 15 37 -3 0 -5 -4 -5 -9z"/>
<path d="M4116 4296 c3 -8 13 -17 22 -21 13 -5 13 -2 -3 15 -21 24 -26 25 -19
6z"/>
<path d="M900 4289 c0 -5 5 -7 10 -4 6 3 10 8 10 11 0 2 -4 4 -10 4 -5 0 -10
-5 -10 -11z"/>
<path d="M1549 4283 c-13 -16 -12 -17 4 -4 9 7 17 15 17 17 0 8 -8 3 -21 -13z"/>
<path d="M4090 4293 c0 -6 7 -19 16 -27 8 -9 21 -16 27 -16 7 0 4 5 -5 11 -10
5 -22 17 -27 27 -6 9 -11 12 -11 5z"/>
<path d="M877 4269 c7 -7 15 -10 18 -7 3 3 -2 9 -12 12 -14 6 -15 5 -6 -5z"/>
<path d="M867 4249 c7 -7 15 -10 18 -7 3 3 -2 9 -12 12 -14 6 -15 5 -6 -5z"/>
<path d="M3448 4253 c7 -3 16 -2 19 1 4 3 -2 6 -13 5 -11 0 -14 -3 -6 -6z"/>
<path d="M1408 4205 c-3 -6 2 -18 11 -27 16 -16 17 -16 18 3 1 11 -2 17 -7 14
-4 -3 -10 0 -12 7 -3 7 -7 8 -10 3z"/>
<path d="M4116 4187 c10 -13 29 -32 43 -42 26 -19 26 -19 8 1 -9 12 -14 24
-10 29 5 4 3 5 -3 2 -6 -3 -17 3 -24 14 -8 10 -18 19 -23 19 -4 0 0 -10 9 -23z"/>
<path d="M732 4164 c-12 -8 -22 -22 -22 -30 0 -8 -7 -17 -15 -20 -8 -4 -15
-12 -15 -19 0 -7 -4 -15 -8 -17 -4 -1 -18 -20 -31 -40 -12 -21 -27 -38 -32
-38 -6 0 -8 -4 -5 -8 3 -5 -7 -24 -22 -43 -34 -43 -62 -93 -62 -111 0 -11 2
-11 9 0 4 8 12 12 17 10 5 -1 9 12 10 31 2 34 20 55 38 44 5 -3 6 -1 2 5 -11
19 12 52 32 46 13 -5 14 -4 3 4 -11 8 -4 24 39 83 71 97 86 113 101 104 8 -5
10 -4 5 3 -9 16 -17 15 -44 -4z"/>
<path d="M1270 4122 c-20 -21 -64 -62 -98 -93 -34 -31 -62 -62 -62 -67 0 -6
-11 -19 -25 -30 -14 -11 -25 -23 -25 -27 0 -4 6 -2 13 4 8 6 18 7 22 3 5 -4 5
-1 0 7 -6 10 -2 12 16 7 13 -3 18 -3 12 0 -21 9 -15 22 28 69 27 29 46 42 57
38 12 -3 13 -2 4 4 -17 12 21 49 39 37 7 -4 10 -3 5 4 -3 6 9 23 29 38 19 14
35 30 35 35 0 16 -15 8 -50 -29z"/>
<path d="M4215 4130 c-3 -5 -1 -10 4 -10 6 0 11 5 11 10 0 6 -2 10 -4 10 -3 0
-8 -4 -11 -10z"/>
<path d="M3696 4103 c-6 -14 -5 -15 5 -6 7 7 10 15 7 18 -3 3 -9 -2 -12 -12z"/>
<path d="M4190 4114 c0 -6 11 -24 25 -40 40 -46 45 -53 45 -63 0 -5 4 -11 9
-13 11 -4 121 -173 121 -186 0 -6 8 -18 18 -28 9 -10 17 -20 17 -23 1 -3 9
-22 20 -41 11 -19 18 -38 17 -42 -1 -5 2 -8 8 -8 13 0 13 17 -1 26 -6 3 -9 15
-6 25 3 11 1 17 -4 14 -4 -3 -11 6 -15 20 -3 14 -14 31 -23 38 -15 11 -41 58
-41 74 0 3 8 -1 18 -10 20 -18 32 -13 32 11 0 9 -7 13 -20 9 -10 -3 -21 0 -24
7 -3 7 -5 6 -5 -3 -1 -15 -41 31 -41 47 0 5 -7 13 -16 16 -9 4 -14 13 -10 22
3 8 2 12 -4 9 -14 -9 -12 8 3 25 10 12 9 12 -5 1 -14 -11 -19 -8 -35 16 -10
15 -25 36 -35 47 -9 10 -14 26 -11 35 4 13 3 13 -5 2 -8 -11 -12 -10 -21 5 -6
11 -11 14 -11 8z m230 -254 c0 -5 -2 -10 -4 -10 -3 0 -8 5 -11 10 -3 6 -1 10
4 10 6 0 11 -4 11 -10z"/>
<path d="M4287 4073 c3 -7 6 -13 8 -13 2 0 5 6 8 13 3 8 -1 14 -8 14 -7 0 -11
-6 -8 -14z"/>
<path d="M714 4064 c-10 -8 -14 -13 -7 -9 7 3 17 -4 23 -15 8 -15 7 -25 -3
-41 -8 -11 -17 -17 -19 -12 -3 4 -4 3 -2 -3 1 -7 -6 -21 -17 -32 -10 -12 -19
-24 -19 -27 0 -4 -14 -26 -31 -50 -21 -29 -37 -42 -48 -38 -12 4 -13 3 -2 -5
8 -6 11 -18 7 -33 -7 -23 -7 -23 8 -4 8 11 19 25 24 31 5 5 17 27 27 47 9 20
22 37 27 37 5 0 7 4 4 9 -3 5 6 21 19 35 14 15 25 30 25 33 0 4 7 15 17 25 9
10 11 18 6 18 -17 0 -25 33 -11 42 7 4 8 8 2 8 -5 0 -19 -7 -30 -16z"/>
<path d="M4270 4051 c0 -5 5 -13 10 -16 6 -3 10 -2 10 4 0 5 -4 13 -10 16 -5
3 -10 2 -10 -4z"/>
<path d="M659 4023 c-13 -16 -12 -17 4 -4 9 7 17 15 17 17 0 8 -8 3 -21 -13z"/>
<path d="M690 4030 c0 -5 7 -7 15 -4 8 4 15 8 15 10 0 2 -7 4 -15 4 -8 0 -15
-4 -15 -10z"/>
<path d="M1185 4011 c-3 -5 -2 -12 3 -15 5 -3 9 1 9 9 0 17 -3 19 -12 6z"/>
<path d="M673 3990 c1 -11 5 -20 9 -20 3 0 6 9 5 20 -1 11 -5 20 -9 20 -3 0
-6 -9 -5 -20z"/>
<path d="M1145 3970 c-16 -17 -16 -20 -3 -15 9 4 19 13 22 21 7 19 2 18 -19
-6z"/>
<path d="M1163 3954 c-12 -13 -18 -24 -13 -24 11 0 40 29 40 41 0 12 -1 11
-27 -17z"/>
<path d="M610 3945 c0 -8 2 -15 4 -15 2 0 6 7 10 15 3 8 1 15 -4 15 -6 0 -10
-7 -10 -15z"/>
<path d="M648 3953 c7 -3 16 -2 19 1 4 3 -2 6 -13 5 -11 0 -14 -3 -6 -6z"/>
<path d="M3844 3940 c0 -13 4 -16 10 -10 7 7 7 13 0 20 -6 6 -10 3 -10 -10z"/>
<path d="M3870 3949 c0 -5 9 -9 21 -9 13 0 18 -4 13 -12 -4 -6 -3 -8 3 -5 19
12 36 -19 23 -43 -12 -22 -6 -40 13 -39 9 0 9 2 0 6 -17 6 -16 18 1 35 11 12
10 18 -8 39 -23 26 -66 44 -66 28z"/>
<path d="M637 3923 c3 -7 6 -13 8 -13 2 0 5 6 8 13 3 8 -1 14 -8 14 -7 0 -11
-6 -8 -14z"/>
<path d="M1095 3900 c-16 -7 -17 -9 -3 -9 9 -1 20 4 23 9 7 11 7 11 -20 0z"/>
<path d="M1028 3867 c-48 -62 -88 -118 -88 -124 0 -3 -11 -21 -26 -40 -14 -18
-22 -33 -19 -33 9 0 35 27 35 37 1 19 56 79 70 76 12 -4 12 -2 2 5 -10 7 -5
19 22 55 20 26 33 47 28 47 -4 -1 -15 -11 -24 -23z"/>
<path d="M1090 3870 c0 -5 7 -7 15 -4 8 4 15 8 15 10 0 2 -7 4 -15 4 -8 0 -15
-4 -15 -10z"/>
<path d="M3959 3871 c7 -5 11 -14 7 -20 -4 -7 -1 -9 8 -5 18 7 38 -28 30 -53
-4 -13 -3 -15 4 -4 7 10 11 10 17 1 4 -7 1 -17 -6 -22 -11 -8 -11 -9 2 -5 17
6 59 -33 59 -53 0 -6 9 -20 20 -32 23 -25 18 -37 -7 -17 -16 13 -17 12 -4 -3
7 -10 20 -18 28 -18 8 0 11 -4 8 -10 -3 -5 -1 -10 5 -10 6 0 8 -5 4 -12 -4 -7
-3 -8 4 -4 7 4 12 2 12 -5 0 -7 3 -10 6 -7 7 7 -31 84 -46 93 -6 4 -17 21 -25
38 -26 55 -110 157 -129 157 -6 0 -5 -4 3 -9z"/>
<path d="M1057 3863 c-11 -11 -8 -20 7 -20 8 0 12 6 9 14 -6 15 -7 15 -16 6z"/>
<path d="M492 3804 c-7 -8 -25 -40 -40 -72 -14 -31 -28 -60 -30 -64 -2 -5 1
-8 7 -8 6 0 11 7 11 16 0 8 5 12 10 9 6 -4 10 -3 8 2 -5 19 14 72 33 92 11 12
19 26 17 30 -2 5 -9 3 -16 -5z"/>
<path d="M538 3803 c7 -3 16 -2 19 1 4 3 -2 6 -13 5 -11 0 -14 -3 -6 -6z"/>
<path d="M540 3786 c0 -2 7 -6 15 -10 8 -3 15 -1 15 4 0 6 -7 10 -15 10 -8 0
-15 -2 -15 -4z"/>
<path d="M572 3758 c-7 -7 -12 -20 -12 -30 0 -10 -5 -18 -11 -18 -5 0 -7 4 -4
10 3 6 -1 7 -10 3 -11 -4 -13 -8 -5 -13 8 -5 6 -21 -8 -55 -11 -27 -21 -44
-24 -39 -3 5 -3 3 -1 -4 1 -7 -2 -23 -8 -35 -10 -21 -9 -21 8 1 11 13 25 43
32 67 7 24 16 45 20 47 4 2 16 20 28 41 22 36 19 49 -5 25z"/>
<path d="M1790 3746 c7 -7 13 -7 20 0 6 6 3 10 -10 10 -13 0 -16 -4 -10 -10z"/>
<path d="M1815 3737 c-11 -7 -23 -16 -26 -21 -4 -5 -12 -5 -18 -2 -6 4 -11 4
-10 -1 3 -20 -2 -32 -18 -37 -10 -3 -43 -30 -73 -58 -30 -29 -58 -52 -63 -50
-5 1 -6 -2 -2 -8 11 -17 -14 -49 -35 -45 -25 5 -34 -9 -20 -35 7 -13 7 -20 0
-20 -5 0 -10 -9 -10 -21 0 -12 4 -17 11 -14 6 4 8 9 5 12 -3 3 1 15 9 25 7 11
11 27 8 34 -3 10 0 12 10 8 10 -3 18 2 22 16 7 23 117 140 132 140 5 0 23 13
39 29 26 25 39 30 92 32 34 1 65 -1 69 -4 3 -4 38 -7 76 -7 39 0 67 3 64 7 -4
4 -34 6 -67 5 -33 0 -60 3 -60 8 0 4 -28 6 -62 3 -45 -5 -59 -3 -54 5 9 14 7
14 -19 -1z m-251 -243 c3 -8 2 -12 -4 -9 -6 3 -10 10 -10 16 0 14 7 11 14 -7z"/>
<path d="M1970 3740 c0 -5 5 -10 10 -10 6 0 10 5 10 10 0 6 -4 10 -10 10 -5 0
-10 -4 -10 -10z"/>
<path d="M496 3724 c-3 -8 -10 -13 -15 -10 -14 9 -8 -16 11 -42 l16 -24 7 22
c4 12 4 24 1 27 -3 4 -6 -2 -6 -12 0 -14 -3 -15 -15 -5 -13 11 -13 14 0 27 8
8 15 19 15 24 0 14 -7 11 -14 -7z"/>
<path d="M4540 3731 c0 -6 4 -11 9 -11 5 0 12 -11 15 -25 4 -14 10 -25 15 -25
5 0 3 13 -5 30 -16 32 -34 48 -34 31z"/>
<path d="M947 3713 c-4 -3 -7 -11 -7 -17 0 -6 5 -5 12 2 6 6 9 14 7 17 -3 3
-9 2 -12 -2z"/>
<path d="M2075 3685 c4 -11 10 -28 12 -37 3 -10 8 -18 12 -18 4 0 7 -8 8 -17
1 -21 56 -171 74 -205 7 -13 14 -30 15 -38 4 -30 42 -120 57 -135 22 -22 33
-19 13 4 -10 10 -14 21 -9 23 4 3 3 3 -4 2 -6 -2 -15 12 -18 29 -4 18 -14 43
-22 56 -11 18 -12 25 -3 31 8 5 7 9 -5 14 -11 4 -15 13 -12 26 3 11 2 18 -3
15 -4 -2 -17 25 -29 62 -12 36 -26 74 -32 84 -6 13 -6 19 1 19 5 0 10 -5 10
-12 0 -6 3 -8 7 -5 3 4 -6 19 -20 33 -15 15 -27 32 -27 38 0 6 -8 20 -17 31
l-16 20 8 -20z"/>
<path d="M4510 3680 c0 -5 5 -10 11 -10 5 0 7 5 4 10 -3 6 -8 10 -11 10 -2 0
-4 -4 -4 -10z"/>
<path d="M1686 3663 c-6 -14 -5 -15 5 -6 7 7 10 15 7 18 -3 3 -9 -2 -12 -12z"/>
<path d="M2126 3661 c-15 -6 -16 -9 -5 -13 8 -3 20 1 27 8 14 15 7 17 -22 5z"/>
<path d="M4483 3662 c-7 -4 -9 -12 -5 -18 9 -13 54 -26 46 -13 -3 5 -12 9 -20
9 -8 0 -14 5 -14 11 0 5 5 7 12 3 7 -4 8 -3 4 4 -8 14 -8 14 -23 4z"/>
<path d="M884 3652 c-6 -4 -18 -20 -27 -37 -13 -26 -13 -32 -1 -43 15 -13 19
-6 15 27 -2 7 2 10 8 6 7 -4 8 0 5 10 -4 10 1 22 12 30 19 15 8 21 -12 7z"/>
<path d="M4577 3641 c3 -12 13 -21 22 -21 12 0 13 2 3 9 -8 4 -13 12 -12 17 1
5 -3 10 -8 12 -6 2 -8 -6 -5 -17z"/>
<path d="M403 3618 c-16 -20 -33 -78 -23 -78 5 0 11 14 15 30 4 17 13 37 22
45 8 8 10 15 5 15 -5 0 -14 -6 -19 -12z"/>
<path d="M456 3613 c-6 -14 -5 -15 5 -6 7 7 10 15 7 18 -3 3 -9 -2 -12 -12z"/>
<path d="M898 3623 c6 -2 18 -2 25 0 6 3 1 5 -13 5 -14 0 -19 -2 -12 -5z"/>
<path d="M4100 3619 c0 -5 -6 -7 -12 -3 -7 4 -9 3 -5 -1 13 -15 36 -14 30 1
-6 17 -13 18 -13 3z"/>
<path d="M940 3609 c0 -5 5 -7 10 -4 6 3 10 8 10 11 0 2 -4 4 -10 4 -5 0 -10
-5 -10 -11z"/>
<path d="M4505 3600 c2 -11 8 -28 14 -37 10 -16 11 -16 18 7 7 28 7 35 -4 35
-5 0 -13 4 -20 8 -8 5 -11 1 -8 -13z m28 -17 c-3 -7 -6 -13 -8 -13 -2 0 -5 6
-8 13 -3 8 1 14 8 14 7 0 11 -6 8 -14z"/>
<path d="M4593 3595 c-9 -10 -8 -17 2 -31 13 -18 14 -17 9 6 -5 19 0 16 20
-15 28 -43 33 -42 14 2 -19 42 -31 52 -45 38z"/>
<path d="M4160 3577 c0 -16 25 -57 34 -57 6 0 4 -5 -4 -10 -13 -8 -12 -10 3
-10 22 0 22 2 -8 46 -14 20 -25 34 -25 31z"/>
<path d="M826 3553 c-3 -10 -7 -22 -8 -28 -1 -5 -8 -16 -15 -23 -7 -8 -11 -17
-8 -22 3 -5 0 -11 -5 -13 -6 -3 -5 -4 2 -2 7 1 12 8 10 15 -1 7 4 9 17 5 12
-4 21 0 25 11 5 14 4 15 -8 5 -12 -10 -15 -9 -13 8 1 12 5 21 10 21 4 0 5 5 1
11 -4 8 1 9 17 4 21 -7 22 -6 7 9 -21 20 -25 20 -32 -1z"/>
<path d="M465 3515 c-13 -23 -22 -30 -27 -22 -4 7 -8 8 -8 2 0 -5 4 -16 9 -24
7 -11 14 -4 31 28 26 52 21 66 -5 16z"/>
<path d="M4535 3540 c-6 -9 11 -50 21 -50 2 0 0 9 -6 19 -14 27 -13 34 6 27 8
-3 12 -2 9 4 -8 13 -22 13 -30 0z"/>
<path d="M4595 3530 c-3 -5 -2 -10 4 -10 5 0 13 5 16 10 3 6 2 10 -4 10 -5 0
-13 -4 -16 -10z"/>
<path d="M363 3514 c-15 -16 -16 -24 -4 -24 8 0 24 30 19 35 -2 2 -9 -3 -15
-11z"/>
<path d="M390 3520 c0 -5 5 -10 11 -10 5 0 7 5 4 10 -3 6 -8 10 -11 10 -2 0
-4 -4 -4 -10z"/>
<path d="M4643 3490 c1 -11 4 -20 8 -20 4 0 10 -18 14 -40 4 -22 11 -42 16
-46 5 -3 9 -14 9 -25 0 -10 5 -19 10 -19 13 0 13 3 -2 37 -6 15 -12 31 -13 36
-2 4 -3 8 -5 10 -1 1 -3 9 -5 17 -5 25 -24 70 -29 70 -3 0 -4 -9 -3 -20z"/>
<path d="M376 3483 c-6 -14 -5 -15 5 -6 7 7 10 15 7 18 -3 3 -9 -2 -12 -12z"/>
<path d="M401 3477 c-13 -21 -12 -21 5 -5 10 10 16 20 13 22 -3 3 -11 -5 -18
-17z"/>
<path d="M4164 3480 c0 -13 4 -16 10 -10 7 7 7 13 0 20 -6 6 -10 3 -10 -10z"/>
<path d="M345 3470 c-3 -5 -1 -10 4 -10 6 0 11 5 11 10 0 6 -2 10 -4 10 -3 0
-8 -4 -11 -10z"/>
<path d="M836 3464 c-11 -7 -18 -16 -15 -18 2 -2 13 2 23 10 11 7 18 16 15 18
-2 2 -13 -2 -23 -10z"/>
<path d="M4553 3467 c4 -10 7 -23 7 -28 0 -5 5 -9 10 -9 16 0 12 26 -7 41 -15
12 -16 12 -10 -4z"/>
<path d="M417 3462 c-3 -4 1 -13 9 -19 7 -7 15 -9 17 -5 3 4 -1 13 -9 19 -7 7
-15 9 -17 5z"/>
<path d="M4179 3454 c-11 -13 -9 -14 14 -9 19 5 27 3 27 -6 0 -8 9 -25 20 -39
l20 -25 -12 35 c-18 54 -46 72 -69 44z"/>
<path d="M330 3440 c0 -5 5 -10 10 -10 6 0 10 5 10 10 0 6 -4 10 -10 10 -5 0
-10 -4 -10 -10z"/>
<path d="M768 3425 c-3 -14 -1 -25 3 -25 5 0 9 4 9 9 0 5 3 16 6 25 3 9 2 16
-4 16 -5 0 -12 -11 -14 -25z"/>
<path d="M4601 3424 c0 -11 3 -14 6 -6 3 7 2 16 -1 19 -3 4 -6 -2 -5 -13z"/>
<path d="M4646 3417 c3 -10 9 -15 12 -12 3 3 0 11 -7 18 -10 9 -11 8 -5 -6z"/>
<path d="M325 3410 c-3 -5 -1 -10 4 -10 6 0 11 5 11 10 0 6 -2 10 -4 10 -3 0
-8 -4 -11 -10z"/>
<path d="M4570 3410 c0 -5 5 -10 12 -10 6 0 8 -3 5 -7 -4 -3 -2 -12 4 -20 6
-7 9 -13 6 -13 -3 0 2 -30 13 -67 10 -38 21 -85 24 -105 4 -21 12 -40 18 -44
8 -5 9 -1 5 10 -5 14 -3 17 8 12 8 -3 15 -2 15 3 0 5 -9 11 -20 14 -14 4 -20
14 -21 36 -3 52 -4 56 -13 62 -5 4 -9 21 -10 38 0 17 -5 31 -10 31 -5 0 -7 3
-3 6 8 8 -13 64 -24 64 -5 0 -9 -4 -9 -10z"/>
<path d="M4617 3405 c-5 -12 -4 -21 2 -23 6 -2 11 -10 11 -18 0 -17 16 -19 26
-2 5 7 3 8 -6 3 -10 -6 -12 -4 -7 9 4 9 3 14 -2 11 -5 -3 -11 5 -13 17 -3 22
-4 22 -11 3z"/>
<path d="M1530 3399 c0 -5 5 -7 10 -4 6 3 10 8 10 11 0 2 -4 4 -10 4 -5 0 -10
-5 -10 -11z"/>
<path d="M317 3383 c-4 -3 -7 -11 -7 -17 0 -6 5 -5 12 2 6 6 9 14 7 17 -3 3
-9 2 -12 -2z"/>
<path d="M409 3383 c0 -5 -2 -18 -3 -30 -1 -12 1 -20 6 -17 5 4 7 12 4 19 -2
7 1 18 7 24 8 8 8 11 -1 11 -7 0 -12 -3 -13 -7z"/>
<path d="M733 3332 c-32 -82 -79 -283 -93 -396 -15 -113 -9 -481 7 -497 7 -7
8 5 5 38 -7 70 -6 410 1 463 4 25 8 53 9 63 1 9 9 17 18 17 9 0 11 3 5 8 -16
11 -20 66 -4 57 8 -6 10 -4 4 5 -4 6 0 40 10 74 31 113 58 191 66 196 4 3 5
11 1 17 -5 7 -16 -11 -29 -45z"/>
<path d="M1527 3283 c3 -115 9 -175 23 -222 5 -19 7 -38 4 -42 -3 -5 0 -9 5
-9 6 0 11 1 11 3 0 1 -7 38 -15 82 -8 44 -14 126 -15 183 0 56 -3 102 -7 102
-5 0 -7 -44 -6 -97z"/>
<path d="M2226 3357 c3 -10 9 -15 12 -12 3 3 0 11 -7 18 -10 9 -11 8 -5 -6z"/>
<path d="M4246 3362 c-3 -6 1 -13 10 -16 10 -4 13 -13 9 -27 -5 -16 -4 -19 6
-14 9 6 11 4 6 -8 -3 -9 -1 -18 6 -21 9 -3 8 -8 -3 -15 -13 -9 -13 -11 3 -11
20 0 23 -26 5 -33 -8 -3 -6 -6 4 -6 10 -1 15 -7 12 -14 -3 -8 2 -20 11 -27 20
-16 19 -9 -9 82 -25 81 -50 126 -60 110z"/>
<path d="M305 3340 c-3 -5 -1 -10 4 -10 6 0 11 5 11 10 0 6 -2 10 -4 10 -3 0
-8 -4 -11 -10z"/>
<path d="M4630 3330 c-9 -6 -11 -10 -3 -10 7 0 10 -7 7 -17 -5 -15 -4 -15 4
-3 6 8 9 17 6 21 -2 4 4 10 13 12 13 3 14 5 3 6 -8 0 -22 -4 -30 -9z"/>
<path d="M4696 3322 c14 -8 40 -117 36 -150 -2 -13 2 -30 9 -38 7 -8 9 -27 5
-47 -4 -22 -3 -28 4 -17 7 11 9 8 9 -15 0 -16 3 -46 6 -65 5 -26 4 -31 -4 -20
-6 8 -11 11 -11 5 1 -5 7 -19 15 -29 20 -27 20 -86 0 -86 -8 0 -15 -4 -15 -10
0 -5 7 -7 15 -4 11 5 13 2 9 -10 -3 -9 -11 -16 -17 -16 -6 0 -8 -2 -5 -5 3 -3
13 -3 22 1 12 5 16 20 16 64 0 33 -4 61 -9 64 -4 3 -6 17 -4 31 3 13 2 33 -2
42 -4 10 -8 40 -10 66 -2 27 -9 55 -15 62 -7 8 -9 18 -6 23 3 5 -2 44 -11 86
-12 56 -21 76 -32 76 -11 0 -12 -3 -5 -8z"/>
<path d="M297 3313 c-5 -8 -37 -130 -37 -139 0 -2 4 -4 10 -4 5 0 6 7 3 17 -4
9 -2 14 3 10 5 -3 10 2 11 11 3 50 15 97 26 104 9 6 9 8 0 8 -6 0 -14 -3 -16
-7z"/>
<path d="M391 3302 c-6 -11 -7 -22 -4 -26 3 -3 -2 -6 -13 -7 -10 0 -13 -3 -6
-6 18 -7 15 -33 -5 -34 -10 0 -13 -3 -6 -5 8 -4 10 -17 6 -37 -8 -45 -22 -69
-35 -61 -7 4 -8 3 -4 -5 4 -6 12 -8 18 -5 8 5 8 -2 3 -22 -13 -51 -16 -89 -5
-78 5 5 12 34 14 64 3 30 5 55 6 55 3 0 48 180 45 183 -2 2 -8 -5 -14 -16z"/>
<path d="M2300 3231 c0 -6 4 -13 10 -16 6 -3 7 1 4 9 -7 18 -14 21 -14 7z"/>
<path d="M301 3194 c0 -11 3 -14 6 -6 3 7 2 16 -1 19 -3 4 -6 -2 -5 -13z"/>
<path d="M332 3196 c7 -8 15 -12 17 -11 5 6 -10 25 -20 25 -5 0 -4 -6 3 -14z"/>
<path d="M2275 3163 c10 -40 10 -52 -3 -70 -8 -13 -19 -23 -26 -23 -6 0 -3 -5
7 -11 10 -6 21 -8 24 -5 4 3 1 6 -6 6 -7 0 -3 12 10 30 12 16 27 26 32 23 6
-3 7 -1 3 6 -4 6 -12 8 -18 5 -6 -4 -8 -3 -5 3 7 11 -13 83 -23 83 -4 0 -1
-21 5 -47z"/>
<path d="M2290 3205 c0 -5 5 -17 10 -25 5 -8 10 -10 10 -5 0 6 -5 17 -10 25
-5 8 -10 11 -10 5z"/>
<path d="M331 3154 c0 -11 3 -14 6 -6 3 7 2 16 -1 19 -3 4 -6 -2 -5 -13z"/>
<path d="M257 3143 c-11 -10 -8 -43 3 -43 5 0 7 7 3 16 -3 9 0 20 8 25 8 5 9
9 3 9 -6 0 -14 -3 -17 -7z"/>
<path d="M4327 3123 c2 -15 4 -36 4 -45 0 -10 5 -18 10 -18 6 0 7 15 3 38 -8
43 -24 67 -17 25z"/>
<path d="M4675 3140 c3 -5 8 -10 11 -10 2 0 4 5 4 10 0 6 -5 10 -11 10 -5 0
-7 -4 -4 -10z"/>
<path d="M4654 3098 c4 -18 9 -59 13 -90 3 -32 10 -58 14 -58 5 0 7 6 4 13 -3
10 -13 88 -18 150 -1 9 -5 17 -10 17 -5 0 -7 -15 -3 -32z"/>
<path d="M4704 3122 c4 -3 14 -7 22 -8 9 -1 13 0 10 4 -4 3 -14 7 -22 8 -9 1
-13 0 -10 -4z"/>
<path d="M4681 3094 c0 -11 3 -14 6 -6 3 7 2 16 -1 19 -3 4 -6 -2 -5 -13z"/>
<path d="M298 3093 c7 -3 16 -2 19 1 4 3 -2 6 -13 5 -11 0 -14 -3 -6 -6z"/>
<path d="M230 2978 c-14 -124 -16 -466 -3 -479 10 -10 8 145 -3 209 -3 23 -3
42 2 42 5 0 10 56 10 125 1 73 6 130 12 138 6 7 8 23 5 36 -4 14 -1 26 8 32
11 7 11 9 -2 9 -13 0 -19 -21 -29 -112z"/>
<path d="M2153 2963 c-53 -55 -83 -94 -83 -108 0 -12 14 -40 31 -61 17 -22 35
-49 40 -61 5 -13 13 -23 19 -23 5 0 10 -6 10 -13 0 -7 9 -18 21 -25 14 -9 19
-10 14 -2 -4 7 -1 17 6 22 11 8 10 9 -3 4 -12 -3 -27 7 -48 32 -16 20 -30 40
-30 45 0 7 -9 20 -37 52 -21 22 -15 45 18 76 36 34 40 35 33 12 -5 -14 -4 -15
4 -4 6 8 8 19 6 25 -3 7 15 30 38 52 24 22 44 46 46 52 3 17 5 19 -85 -75z"/>
<path d="M4345 3030 c2 -27 15 -38 15 -12 0 11 -4 23 -8 26 -5 3 -8 -4 -7 -14z"/>
<path d="M4732 3016 c7 -8 15 -12 17 -11 5 6 -10 25 -20 25 -5 0 -4 -6 3 -14z"/>
<path d="M321 2878 c-1 -68 -7 -128 -12 -134 -6 -7 -6 -29 0 -60 6 -27 12 -93
14 -146 2 -54 6 -101 10 -105 7 -6 2 130 -8 222 -2 22 0 105 5 185 5 80 5 148
1 153 -4 4 -8 -48 -10 -115z"/>
<path d="M1565 2985 c4 -11 8 -26 8 -32 0 -7 4 -13 9 -13 11 0 0 41 -15 55 -7
7 -8 4 -2 -10z"/>
<path d="M2220 2979 c0 -11 4 -18 10 -14 5 3 7 12 3 20 -7 21 -13 19 -13 -6z"/>
<path d="M4349 2981 c10 -6 12 -20 8 -45 -3 -20 -2 -36 4 -36 5 0 9 -25 9 -56
0 -41 -3 -53 -12 -48 -9 6 -9 3 1 -9 15 -19 17 -62 7 -202 -4 -55 -7 -110 -8
-122 0 -13 -3 -23 -7 -23 -3 0 -7 -26 -8 -57 -2 -32 -8 -60 -15 -65 -10 -6 -9
-8 3 -8 34 0 63 322 48 529 -11 141 -13 151 -32 151 -8 0 -7 -3 2 -9z"/>
<path d="M4722 2964 c-7 -8 -8 -14 -3 -14 10 0 25 19 20 25 -2 1 -10 -3 -17
-11z"/>
<path d="M4740 2944 c0 -6 7 -19 15 -30 8 -10 14 -14 14 -9 0 6 -6 19 -14 29
-8 11 -15 15 -15 10z"/>
<path d="M4701 2924 c0 -11 3 -14 6 -6 3 7 2 16 -1 19 -3 4 -6 -2 -5 -13z"/>
<path d="M1578 2923 c6 -2 12 -13 12 -24 0 -10 5 -19 11 -19 6 0 8 7 5 16 -3
9 -6 20 -6 25 0 5 -8 9 -17 8 -11 0 -13 -3 -5 -6z"/>
<path d="M4331 2914 c0 -11 3 -14 6 -6 3 7 2 16 -1 19 -3 4 -6 -2 -5 -13z"/>
<path d="M4686 2795 c3 -77 8 -148 10 -157 3 -10 1 -18 -5 -18 -7 0 -11 -24
-11 -60 0 -77 14 -79 18 -2 7 132 6 252 0 252 -5 0 -8 16 -8 36 0 23 4 33 11
28 8 -4 8 -1 1 12 -5 11 -12 26 -15 34 -4 8 -4 -48 -1 -125z"/>
<path d="M4736 2896 c5 -12 4 -17 -3 -13 -5 3 -10 0 -10 -8 0 -20 13 -19 21 2
4 9 2 21 -4 27 -8 8 -9 6 -4 -8z"/>
<path d="M1604 2850 c0 -11 4 -20 8 -20 4 0 8 -7 8 -15 0 -8 4 -15 10 -15 6 0
5 11 -2 28 -17 38 -24 45 -24 22z"/>
<path d="M4785 2716 c0 -52 3 -92 8 -89 4 2 7 44 7 94 0 49 -3 89 -7 89 -5 0
-8 -42 -8 -94z"/>
<path d="M1633 2775 c0 -8 4 -15 9 -15 4 0 8 -7 8 -16 0 -9 13 -38 30 -65 16
-27 25 -51 20 -54 -6 -3 -10 -12 -9 -18 0 -9 2 -9 6 1 2 6 9 12 14 12 6 0 5
-8 -1 -20 -14 -26 -5 -40 20 -35 20 4 45 -26 33 -39 -3 -3 -1 -6 6 -6 7 0 9
-4 6 -10 -3 -5 -1 -10 5 -10 6 0 8 -5 4 -12 -4 -7 -3 -8 4 -4 7 4 12 2 12 -4
0 -13 82 -118 93 -119 12 -1 -24 52 -69 103 -15 17 -33 44 -40 61 -16 38 -33
53 -57 50 -10 -2 -16 2 -14 8 3 7 10 11 16 9 7 -1 1 19 -13 45 -14 27 -35 72
-47 101 -21 51 -36 66 -36 37z"/>
<path d="M2140 2781 c0 -5 5 -13 10 -16 6 -3 10 -2 10 4 0 5 -4 13 -10 16 -5
3 -10 2 -10 -4z"/>
<path d="M4331 2744 c0 -11 3 -14 6 -6 3 7 2 16 -1 19 -3 4 -6 -2 -5 -13z"/>
<path d="M2222 2706 c7 -8 15 -12 17 -11 5 6 -10 25 -20 25 -5 0 -4 -6 3 -14z"/>
<path d="M4338 2668 c2 -10 8 -15 13 -12 14 8 11 31 -5 31 -8 0 -11 -8 -8 -19z"/>
<path d="M2220 2671 c0 -6 4 -13 10 -16 6 -3 7 1 4 9 -7 18 -14 21 -14 7z"/>
<path d="M2233 2616 c18 -18 46 -50 64 -70 30 -33 60 -53 34 -23 -8 10 -7 17
2 27 10 12 9 12 -5 2 -14 -11 -19 -8 -39 20 -24 34 -69 78 -81 78 -3 0 8 -15
25 -34z"/>
<path d="M2300 2631 c0 -5 5 -13 10 -16 6 -3 10 -2 10 4 0 5 -4 13 -10 16 -5
3 -10 2 -10 -4z"/>
<path d="M2275 2620 c3 -5 8 -10 11 -10 2 0 4 5 4 10 0 6 -5 10 -11 10 -5 0
-7 -4 -4 -10z"/>
<path d="M4781 2605 c-2 -5 -2 -31 -1 -57 2 -56 -8 -97 -20 -78 -5 8 -10 3
-14 -15 -4 -15 -5 -30 -1 -33 3 -3 5 3 5 13 0 12 3 15 9 10 6 -6 6 -27 0 -55
-9 -40 -17 -95 -22 -142 -1 -14 -4 -15 -16 -5 -12 10 -13 9 -4 -8 6 -11 8 -37
6 -57 -4 -30 -10 -38 -27 -39 -16 -1 -17 -2 -4 -6 11 -3 15 -10 11 -21 -4 -12
-3 -14 5 -7 14 12 55 194 48 211 -3 8 -1 16 3 19 12 7 34 191 28 240 -2 22 -5
36 -6 30z"/>
<path d="M2363 2525 c-12 -13 1 -35 22 -35 5 0 3 5 -5 10 -12 8 -13 11 -1 19
7 5 9 11 5 14 -5 3 -14 -1 -21 -8z"/>
<path d="M2340 2498 c0 -8 92 -98 100 -98 4 0 24 -18 45 -41 20 -22 39 -38 42
-35 5 5 -86 93 -125 122 -9 7 -12 16 -7 24 6 9 4 11 -4 6 -7 -5 -21 0 -32 10
-10 9 -19 15 -19 12z"/>
<path d="M4677 2483 c-2 -5 -7 -37 -11 -73 -4 -36 -10 -75 -13 -87 -3 -13 -1
-23 4 -23 5 0 9 10 10 23 5 67 15 110 24 96 5 -9 9 -10 9 -2 0 6 -5 15 -11 19
-6 3 -9 17 -6 30 4 24 2 31 -6 17z"/>
<path d="M4705 2479 c-4 -6 -5 -12 -2 -15 2 -3 7 2 10 11 7 17 1 20 -8 4z"/>
<path d="M236 2420 c2 -35 9 -69 15 -75 7 -7 8 -1 4 20 -4 17 -11 50 -16 75
-7 39 -7 37 -3 -20z"/>
<path d="M4710 2441 c0 -6 4 -13 10 -16 6 -3 7 1 4 9 -7 18 -14 21 -14 7z"/>
<path d="M682 2415 c0 -16 2 -22 5 -12 2 9 2 23 0 30 -3 6 -5 -1 -5 -18z"/>
<path d="M337 2368 c2 -28 11 -65 19 -82 12 -26 13 -27 9 -6 -3 14 -8 49 -11
78 -9 68 -23 77 -17 10z"/>
<path d="M650 2401 c0 -11 4 -22 9 -25 5 -3 7 -14 5 -24 -6 -27 20 -115 36
-120 13 -5 13 -3 1 11 -7 9 -11 24 -7 32 3 8 1 15 -4 15 -6 0 -10 7 -10 16 0
8 5 12 10 9 6 -3 10 -1 10 4 0 6 -6 11 -14 11 -7 0 -13 10 -13 23 1 47 -3 67
-13 67 -5 0 -10 -9 -10 -19z"/>
<path d="M4326 2407 c3 -10 9 -15 12 -12 3 3 0 11 -7 18 -10 9 -11 8 -5 -6z"/>
<path d="M3108 2393 c7 -3 16 -2 19 1 4 3 -2 6 -13 5 -11 0 -14 -3 -6 -6z"/>
<path d="M2491 2387 c2 -1 15 -11 29 -22 l25 -20 -19 23 c-11 12 -24 22 -29
22 -6 0 -8 -1 -6 -3z"/>
<path d="M301 2364 c0 -11 3 -14 6 -6 3 7 2 16 -1 19 -3 4 -6 -2 -5 -13z"/>
<path d="M3080 2370 c-8 -5 -25 -10 -36 -10 -23 0 -51 -26 -40 -37 4 -4 11 -1
16 7 9 15 100 23 100 9 0 -8 56 -29 74 -28 6 0 -9 10 -34 21 -25 12 -51 20
-59 19 -9 -2 -12 3 -8 13 7 19 7 19 -13 6z"/>
<path d="M4690 2361 c0 -6 4 -13 10 -16 6 -3 7 1 4 9 -7 18 -14 21 -14 7z"/>
<path d="M1876 2335 c4 -8 8 -15 10 -15 2 0 4 7 4 15 0 8 -4 15 -10 15 -5 0
-7 -7 -4 -15z"/>
<path d="M1900 2340 c0 -6 7 -13 15 -16 8 -4 12 -11 8 -17 -4 -6 -1 -7 7 -2
10 6 12 3 8 -13 -4 -12 -1 -25 4 -29 7 -3 8 -1 4 5 -16 26 8 9 74 -55 55 -52
69 -71 64 -87 -4 -16 -3 -18 5 -6 15 22 24 5 11 -22 -10 -21 -10 -21 3 -5 17
21 31 23 24 3 -4 -10 -1 -13 8 -10 7 3 28 -8 47 -25 32 -30 32 -32 14 -46 -11
-8 -15 -15 -9 -15 7 0 15 5 18 10 3 6 11 10 16 10 6 0 7 -5 3 -12 -4 -7 -3 -8
5 -4 7 5 19 0 29 -11 9 -11 29 -27 44 -37 17 -11 25 -23 21 -34 -4 -14 -3 -14
5 -3 9 12 16 11 46 -10 20 -13 34 -30 31 -37 -3 -7 -1 -10 4 -7 14 8 81 -27
74 -38 -3 -6 -2 -8 3 -4 12 7 38 -13 47 -37 6 -14 10 -16 21 -7 11 9 18 8 32
-6 9 -10 15 -12 13 -5 -3 8 -18 21 -34 30 -17 9 -32 20 -33 25 -2 4 -8 5 -13
1 -5 -3 -9 0 -9 5 0 6 -20 20 -44 31 -24 12 -54 32 -66 46 -13 13 -29 24 -37
24 -7 0 -21 8 -32 19 -10 10 -23 20 -29 22 -29 10 -351 316 -352 334 -1 14
-50 48 -50 35z"/>
<path d="M250 2320 c0 -22 23 -116 31 -126 5 -6 6 -13 3 -16 -7 -8 36 -168 45
-168 4 0 7 -10 8 -21 3 -42 44 -52 42 -11 0 14 -2 14 -8 -2 -8 -21 -19 -12
-26 21 -7 40 -10 48 -18 54 -4 3 -9 19 -10 35 -1 16 -6 32 -10 35 -4 3 -9 21
-11 40 -2 19 -7 45 -13 59 -16 41 -24 101 -11 94 7 -4 8 -2 4 4 -9 14 -26 16
-26 2z"/>
<path d="M2552 2301 c7 -12 18 -21 24 -21 6 0 20 -10 31 -22 26 -29 166 -118
185 -118 19 0 130 109 124 123 -3 8 -5 8 -5 -1 -1 -7 -5 -10 -11 -7 -5 3 -10
0 -10 -7 0 -21 -86 -101 -102 -96 -7 3 -17 5 -21 4 -5 0 -13 7 -18 17 -6 9
-17 17 -24 17 -8 0 -15 5 -15 10 0 6 -6 10 -13 10 -7 0 -25 11 -40 25 -15 14
-27 22 -27 18 0 -4 -6 -1 -13 7 -7 8 -27 25 -45 38 -31 22 -32 22 -20 3z"/>
<path d="M2606 2307 c3 -10 9 -15 12 -12 3 3 0 11 -7 18 -10 9 -11 8 -5 -6z"/>
<path d="M2975 2310 c-3 -5 -13 -7 -23 -4 -14 5 -15 4 -2 -5 12 -8 12 -11 -3
-17 -9 -3 -17 -10 -17 -15 0 -14 24 0 43 26 10 14 16 25 13 25 -3 0 -7 -4 -11
-10z"/>
<path d="M3210 2310 c0 -5 5 -10 11 -10 5 0 7 5 4 10 -3 6 -8 10 -11 10 -2 0
-4 -4 -4 -10z"/>
<path d="M4716 2308 c3 -4 0 -8 -7 -8 -7 0 -10 -2 -7 -5 7 -7 38 5 38 14 0 4
-7 8 -15 8 -8 0 -12 -4 -9 -9z"/>
<path d="M3276 2299 c4 -8 -1 -9 -17 -4 -23 7 -23 7 -4 -8 11 -9 22 -12 25 -9
3 4 9 10 13 13 5 3 1 9 -8 12 -10 4 -14 3 -9 -4z"/>
<path d="M3321 2299 c11 -7 11 -9 1 -9 -8 0 -10 -5 -6 -12 5 -8 2 -9 -9 -5
-24 9 -21 0 4 -14 17 -8 20 -8 14 1 -5 9 -1 10 16 5 24 -7 24 -7 4 10 -14 12
-15 15 -4 12 9 -3 16 0 16 6 0 7 -12 13 -25 14 -18 1 -21 -1 -11 -8z"/>
<path d="M4326 2283 c-6 -14 -5 -15 5 -6 7 7 10 15 7 18 -3 3 -9 -2 -12 -12z"/>
<path d="M4631 2228 c-8 -35 -13 -73 -13 -85 0 -13 -4 -23 -8 -23 -4 0 -10
-11 -12 -25 -3 -14 -2 -25 1 -25 11 0 32 67 37 113 3 23 9 57 14 75 4 17 5 32
1 32 -4 0 -13 -28 -20 -62z"/>
<path d="M4700 2270 c0 -5 7 -7 15 -4 8 4 15 8 15 10 0 2 -7 4 -15 4 -8 0 -15
-4 -15 -10z"/>
<path d="M4310 2225 c-6 -19 -15 -33 -20 -30 -4 3 -6 -3 -4 -12 3 -10 -2 -38
-11 -62 -18 -51 -18 -54 -5 -46 10 6 35 84 31 99 -1 4 2 13 7 20 10 13 25 66
18 66 -2 0 -10 -16 -16 -35z"/>
<path d="M354 2239 c-4 -8 -3 -10 4 -5 8 5 12 -2 13 -21 1 -41 5 -57 23 -89
16 -27 17 -27 11 -4 -14 60 -31 120 -37 125 -3 4 -9 1 -14 -6z"/>
<path d="M3369 2235 c19 -8 36 -13 39 -10 8 8 0 12 -38 19 l-35 7 34 -16z"/>
<path d="M296 2227 c3 -10 9 -15 12 -12 3 3 0 11 -7 18 -10 9 -11 8 -5 -6z"/>
<path d="M3483 2224 c-3 -9 -12 -13 -22 -10 -11 4 -10 2 3 -9 18 -14 39 -19
59 -16 4 0 7 -3 7 -8 0 -5 8 -11 18 -14 9 -2 26 -8 37 -12 11 -3 2 5 -20 20
-32 21 -35 26 -15 21 24 -5 24 -4 6 9 -17 13 -21 12 -32 -3 -9 -11 -13 -13
-14 -4 0 7 -4 11 -9 7 -6 -3 -8 4 -6 15 5 24 -3 27 -12 4z"/>
<path d="M3420 2220 c0 -5 5 -10 11 -10 5 0 7 5 4 10 -3 6 -8 10 -11 10 -2 0
-4 -4 -4 -10z"/>
<path d="M690 2210 c0 -5 5 -10 10 -10 6 0 10 5 10 10 0 6 -4 10 -10 10 -5 0
-10 -4 -10 -10z"/>
<path d="M2020 2185 c13 -14 26 -25 28 -25 3 0 -5 11 -18 25 -13 14 -26 25
-28 25 -3 0 5 -11 18 -25z"/>
<path d="M2740 2206 c0 -2 8 -10 18 -17 15 -13 16 -12 3 4 -13 16 -21 21 -21
13z"/>
<path d="M3587 2203 c-4 -3 -7 -11 -7 -17 0 -6 5 -5 12 2 6 6 9 14 7 17 -3 3
-9 2 -12 -2z"/>
<path d="M705 2180 c-3 -5 -2 -18 4 -27 7 -14 9 -12 8 10 -2 30 -3 31 -12 17z"/>
<path d="M2788 2183 c7 -3 16 -2 19 1 4 3 -2 6 -13 5 -11 0 -14 -3 -6 -6z"/>
<path d="M313 2155 c0 -8 4 -12 9 -9 5 3 6 10 3 15 -9 13 -12 11 -12 -6z"/>
<path d="M3615 2150 c3 -5 8 -10 11 -10 2 0 4 5 4 10 0 6 -5 10 -11 10 -5 0
-7 -4 -4 -10z"/>
<path d="M727 2133 c-14 -13 -6 -33 13 -33 11 0 20 -7 20 -15 0 -8 4 -15 9
-15 18 0 -1 38 -22 44 -19 5 -20 8 -7 16 8 5 10 10 4 10 -6 0 -14 -3 -17 -7z"/>
<path d="M3652 2133 c-10 -4 -11 -33 -6 -133 l7 -128 -27 -27 c-26 -26 -32
-42 -11 -27 19 13 66 82 57 82 -6 0 -10 28 -11 63 0 34 -3 81 -7 105 -5 38 -4
42 12 36 16 -5 16 -4 4 5 -13 10 -13 12 0 21 16 10 4 12 -18 3z"/>
<path d="M4255 2130 c-3 -5 -1 -10 4 -10 6 0 11 5 11 10 0 6 -2 10 -4 10 -3 0
-8 -4 -11 -10z"/>
<path d="M4241 2084 c0 -11 3 -14 6 -6 3 7 2 16 -1 19 -3 4 -6 -2 -5 -13z"/>
<path d="M405 2069 c5 -16 4 -20 -6 -15 -9 5 -9 3 1 -6 8 -7 21 -25 29 -40 8
-16 15 -27 17 -25 6 5 -31 107 -39 107 -4 0 -5 -10 -2 -21z"/>
<path d="M737 2073 c9 -25 33 -59 33 -47 0 16 -24 64 -32 64 -4 0 -5 -8 -1
-17z"/>
<path d="M4690 2079 c0 -5 5 -7 10 -4 6 3 10 8 10 11 0 2 -4 4 -10 4 -5 0 -10
-5 -10 -11z"/>
<path d="M4243 2028 c-6 -22 -15 -33 -26 -32 -9 1 -17 -2 -17 -7 0 -5 8 -9 17
-9 13 0 14 -3 5 -12 -7 -7 -12 -16 -12 -21 0 -5 6 -2 13 5 17 16 49 108 38
108 -5 0 -12 -15 -18 -32z"/>
<path d="M4581 2043 c-5 -10 -14 -35 -19 -56 -9 -33 -9 -37 4 -26 8 6 14 20
14 31 0 10 3 17 8 15 4 -3 7 8 8 24 1 34 -2 36 -15 12z"/>
<path d="M4664 2048 c3 -10 9 -25 13 -35 4 -11 3 -14 -5 -9 -8 5 -10 2 -6 -8
4 -11 0 -16 -12 -16 -16 0 -17 -2 -4 -10 12 -8 13 -12 2 -19 -8 -4 -13 -11
-13 -15 4 -26 -2 -36 -21 -37 -17 -1 -18 -3 -6 -6 11 -3 15 -10 11 -21 -4 -11
-3 -14 4 -7 6 6 22 41 36 79 24 64 25 70 11 95 -8 14 -13 18 -10 9z"/>
<path d="M2176 2037 c3 -10 9 -15 12 -12 3 3 0 11 -7 18 -10 9 -11 8 -5 -6z"/>
<path d="M350 2031 c0 -6 4 -13 10 -16 6 -3 7 1 4 9 -7 18 -14 21 -14 7z"/>
<path d="M780 2025 c0 -8 -5 -15 -10 -15 -7 0 -7 -6 0 -20 6 -11 16 -20 23
-19 9 0 9 2 0 6 -7 2 -13 11 -13 19 0 9 4 13 8 10 4 -2 8 4 8 15 0 10 -4 19
-8 19 -4 0 -8 -7 -8 -15z"/>
<path d="M406 1997 c3 -10 9 -15 12 -12 3 3 0 11 -7 18 -10 9 -11 8 -5 -6z"/>
<path d="M4180 1979 c0 -13 -4 -18 -12 -13 -7 4 -8 3 -4 -4 11 -18 34 -3 29
19 -7 25 -13 24 -13 -2z"/>
<path d="M421 1953 c0 -12 -7 -24 -13 -27 -7 -3 2 -3 20 0 26 3 32 1 32 -14 0
-10 4 -22 8 -27 5 -6 14 -23 20 -39 11 -25 11 -28 -3 -22 -9 3 -13 2 -10 -4 3
-6 13 -10 22 -10 11 0 14 -7 11 -25 -3 -13 -2 -22 3 -20 4 3 10 1 14 -5 3 -5
11 -10 17 -10 6 0 4 8 -5 18 -8 9 -19 31 -23 47 -9 37 -63 155 -70 155 -4 0
-4 -7 -1 -15 4 -8 2 -17 -3 -20 -5 -3 -11 5 -13 17 -4 22 -4 22 -6 1z"/>
<path d="M2245 1960 c3 -5 8 -10 11 -10 2 0 4 5 4 10 0 6 -5 10 -11 10 -5 0
-7 -4 -4 -10z"/>
<path d="M785 1950 c3 -5 8 -10 11 -10 2 0 4 5 4 10 0 6 -5 10 -11 10 -5 0 -7
-4 -4 -10z"/>
<path d="M2275 1940 c3 -5 11 -10 16 -10 6 0 7 5 4 10 -3 6 -11 10 -16 10 -6
0 -7 -4 -4 -10z"/>
<path d="M350 1936 c0 -16 31 -66 41 -66 6 0 0 15 -12 33 -29 42 -29 41 -29
33z"/>
<path d="M4542 1928 c-7 -7 -12 -18 -12 -25 0 -8 -7 -27 -15 -43 -9 -17 -12
-30 -7 -30 11 0 45 71 38 78 -3 3 -1 11 5 19 14 16 7 17 -9 1z"/>
<path d="M807 1897 c20 -41 38 -50 23 -12 -6 14 -6 25 0 25 4 0 10 -8 12 -17
3 -15 5 -15 10 3 4 17 1 21 -16 19 -11 0 -27 3 -34 9 -9 6 -7 -4 5 -27z"/>
<path d="M4173 1916 c-3 -5 -1 -6 5 -2 18 11 15 -20 -3 -38 -9 -8 -15 -17 -14
-18 5 -8 -13 -48 -22 -48 -5 0 -9 -7 -9 -16 0 -26 23 4 56 73 27 56 28 61 11
60 -10 -1 -21 -6 -24 -11z"/>
<path d="M2356 1896 c3 -8 13 -17 22 -21 13 -5 13 -2 -3 15 -21 24 -26 25 -19
6z"/>
<path d="M4567 1889 c4 -13 8 -18 11 -10 2 7 -1 18 -6 23 -8 8 -9 4 -5 -13z"/>
<path d="M860 1891 c0 -6 4 -13 10 -16 6 -3 7 1 4 9 -7 18 -14 21 -14 7z"/>
<path d="M2330 1893 c0 -6 7 -19 16 -27 8 -9 21 -16 27 -16 7 0 4 5 -5 11 -10
5 -22 17 -27 27 -6 9 -11 12 -11 5z"/>
<path d="M843 1855 c-10 -10 -9 -16 4 -27 14 -11 16 -11 10 4 -3 9 -1 18 6 21
6 2 7 6 2 9 -6 3 -15 0 -22 -7z"/>
<path d="M4590 1859 c0 -5 5 -7 10 -4 6 3 10 8 10 11 0 2 -4 4 -10 4 -5 0 -10
-5 -10 -11z"/>
<path d="M380 1851 c0 -5 5 -13 10 -16 6 -3 10 -2 10 4 0 5 -4 13 -10 16 -5 3
-10 2 -10 -4z"/>
<path d="M3654 1839 c-4 -7 -3 -9 4 -5 5 3 13 0 15 -6 4 -9 6 -10 6 -1 1 17
-16 25 -25 12z"/>
<path d="M4570 1839 c0 -5 -3 -8 -7 -6 -5 2 -21 -2 -38 -9 -19 -9 -23 -13 -10
-12 28 3 45 -10 38 -30 -3 -9 -3 -14 1 -11 4 4 8 15 10 25 3 11 7 27 11 37 4
9 4 17 1 17 -3 0 -6 -5 -6 -11z"/>
<path d="M4609 1845 c-1 -3 -2 -11 -3 -17 -1 -7 -8 -12 -15 -10 -7 1 -10 -2
-7 -7 7 -11 -25 -101 -37 -101 -4 0 -5 4 -2 10 3 6 -1 7 -10 3 -11 -4 -13 -8
-5 -13 18 -11 7 -34 -22 -47 -16 -7 -28 -18 -28 -25 0 -9 3 -9 11 2 8 11 12
12 16 3 10 -26 35 -2 32 31 0 5 4 12 10 15 13 8 72 141 63 141 -4 0 0 5 8 10
10 6 11 10 3 10 -7 0 -14 -2 -14 -5z"/>
<path d="M425 1830 c-3 -6 1 -7 9 -4 18 7 21 14 7 14 -6 0 -13 -4 -16 -10z"/>
<path d="M404 1807 c3 -10 6 -23 6 -28 0 -5 5 -9 10 -9 14 0 12 13 -6 36 -14
17 -15 17 -10 1z"/>
<path d="M435 1793 c3 -12 1 -24 -4 -27 -6 -4 -2 -20 10 -41 12 -19 22 -35 22
-35 1 0 2 11 2 24 0 13 -3 22 -6 20 -4 -2 -10 4 -13 13 -4 9 -2 19 4 23 6 4 4
13 -6 26 -15 19 -15 18 -9 -3z"/>
<path d="M461 1803 c-1 -18 13 -23 29 -11 12 8 12 9 -2 5 -9 -3 -19 -1 -22 6
-3 9 -5 9 -5 0z"/>
<path d="M871 1780 c6 -16 15 -30 19 -30 5 0 2 14 -6 30 -9 17 -17 30 -19 30
-2 0 1 -13 6 -30z"/>
<path d="M3655 1800 c3 -5 8 -10 11 -10 2 0 4 5 4 10 0 6 -5 10 -11 10 -5 0
-7 -4 -4 -10z"/>
<path d="M3526 1734 c-60 -58 -115 -93 -190 -118 -10 -4 -17 -9 -14 -12 5 -4
50 10 102 31 14 6 17 5 12 -3 -6 -9 -1 -9 18 0 14 6 26 16 26 22 0 6 -5 5 -12
-2 -20 -20 -32 -13 -13 8 10 11 20 18 22 16 4 -4 123 111 123 119 0 9 -5 5
-74 -61z"/>
<path d="M3610 1789 c0 -5 5 -7 10 -4 6 3 10 8 10 11 0 2 -4 4 -10 4 -5 0 -10
-5 -10 -11z"/>
<path d="M4088 1793 c7 -3 16 -2 19 1 4 3 -2 6 -13 5 -11 0 -14 -3 -6 -6z"/>
<path d="M4472 1775 c-16 -35 -15 -45 6 -44 9 0 12 3 5 5 -7 3 -9 12 -6 20 4
11 9 12 18 4 14 -11 33 5 21 17 -3 4 -6 1 -6 -6 0 -7 -5 -9 -11 -6 -6 4 -8 13
-5 21 10 25 -10 15 -22 -11z"/>
<path d="M4525 1790 c3 -5 8 -10 11 -10 2 0 4 5 4 10 0 6 -5 10 -11 10 -5 0
-7 -4 -4 -10z"/>
<path d="M2647 1748 c31 -16 40 -25 32 -34 -7 -8 -6 -12 3 -11 35 1 49 -4 42
-15 -5 -10 -4 -10 6 -1 10 9 24 8 64 -8 59 -22 56 -22 56 -10 0 5 -14 11 -30
15 -17 3 -68 24 -113 46 -87 41 -134 56 -60 18z"/>
<path d="M4088 1760 c13 -15 17 -34 5 -27 -5 3 -9 -6 -9 -19 -1 -14 -11 -33
-23 -43 -12 -10 -21 -22 -21 -25 0 -4 -6 -14 -14 -22 -11 -11 -16 -11 -20 -1
-2 6 -4 1 -3 -13 1 -16 -3 -24 -11 -22 -8 1 -11 -2 -8 -7 4 -5 2 -12 -4 -16
-5 -3 -10 -11 -10 -17 0 -5 16 10 36 34 19 23 43 52 52 63 23 28 64 116 58
123 -3 3 -6 0 -6 -8 0 -10 -3 -10 -17 1 -15 11 -16 11 -5 -1z"/>
<path d="M935 1750 c-3 -5 -1 -19 5 -31 7 -11 9 -23 6 -26 -3 -3 -11 6 -17 21
-7 14 -16 26 -21 26 -12 0 -11 -3 16 -38 19 -26 25 -29 30 -17 3 9 1 25 -4 35
-13 25 -13 33 2 24 7 -4 8 -3 4 4 -9 15 -13 15 -21 2z"/>
<path d="M540 1731 c0 -6 5 -11 10 -11 6 0 10 -12 10 -26 0 -16 -4 -23 -12
-18 -7 4 -8 3 -4 -4 4 -6 14 -8 23 -5 11 4 14 3 9 -5 -4 -7 -3 -12 1 -12 10 0
76 -109 76 -126 0 -7 4 -11 9 -8 4 3 11 -3 15 -12 4 -10 13 -26 22 -36 19 -22
23 -48 8 -48 -7 0 -5 -5 3 -10 13 -9 13 -10 0 -10 -11 -1 -9 -6 7 -19 12 -10
20 -21 18 -23 -3 -3 2 -5 10 -5 21 0 19 14 -4 22 -19 6 -23 35 -7 47 5 3 -2
22 -17 42 -15 19 -27 39 -27 45 0 6 -5 11 -10 11 -6 0 -18 17 -28 38 -9 20
-23 43 -30 51 -8 8 -25 38 -38 67 -23 51 -44 77 -44 55z"/>
<path d="M4496 1725 c-3 -9 -10 -13 -16 -10 -5 3 -10 1 -10 -4 0 -17 27 -13
34 5 4 9 5 19 2 21 -2 2 -6 -3 -10 -12z"/>
<path d="M2651 1714 c0 -11 3 -14 6 -6 3 7 2 16 -1 19 -3 4 -6 -2 -5 -13z"/>
<path d="M4439 1696 c-15 -19 -15 -23 -1 -35 13 -12 14 -12 10 0 -3 8 -1 22 4
32 14 27 6 29 -13 3z"/>
<path d="M472 1654 c14 -30 23 -31 23 -1 0 15 -6 24 -17 24 -14 1 -15 -2 -6
-23z"/>
<path d="M981 1671 c-8 -5 -9 -11 -3 -15 5 -3 12 1 16 9 6 17 6 18 -13 6z"/>
<path d="M1017 1673 c-13 -13 -7 -33 11 -32 10 0 12 3 5 6 -7 2 -13 9 -13 14
0 6 5 7 12 3 7 -4 8 -3 4 4 -8 14 -10 14 -19 5z"/>
<path d="M2860 1662 c0 -12 50 -33 61 -26 5 3 23 -1 39 -10 17 -8 30 -10 30
-5 0 11 -18 19 -51 23 -13 1 -34 8 -46 14 -26 14 -33 15 -33 4z"/>
<path d="M525 1650 c3 -5 1 -10 -6 -10 -8 0 -8 -4 1 -15 7 -8 18 -15 24 -14 7
0 6 2 -1 6 -7 2 -13 9 -13 15 0 6 7 7 16 4 14 -5 15 -4 4 9 -14 17 -35 21 -25
5z"/>
<path d="M979 1616 c17 -25 35 -47 39 -50 11 -7 8 31 -3 41 -4 5 -5 2 -1 -4 4
-7 3 -13 -3 -13 -6 0 -13 10 -16 23 -4 13 -15 29 -27 36 -16 10 -13 3 11 -33z"/>
<path d="M3484 1634 c-20 -21 -21 -23 -3 -27 10 -3 18 -2 17 2 -1 3 2 14 7 24
11 26 3 26 -21 1z"/>
<path d="M4397 1630 c-10 -16 -15 -30 -12 -30 8 0 44 42 45 53 0 17 -17 5 -33
-23z"/>
<path d="M2808 1633 c7 -3 16 -2 19 1 4 3 -2 6 -13 5 -11 0 -14 -3 -6 -6z"/>
<path d="M4426 1621 c-10 -11 -16 -26 -13 -33 3 -8 6 -6 6 6 1 15 4 16 15 7
12 -10 13 -8 9 10 -5 17 -3 20 7 14 9 -5 11 -4 6 3 -9 15 -10 15 -30 -7z"/>
<path d="M3005 1620 c-3 -5 -5 -10 -3 -11 19 -4 312 -10 308 -6 -3 3 -66 6
-140 8 -74 2 -140 7 -147 12 -6 4 -14 3 -18 -3z"/>
<path d="M531 1562 c17 -34 35 -65 40 -68 14 -8 11 3 -11 38 -22 36 -29 77 -9
48 9 -13 10 -13 6 0 -2 8 -10 14 -17 12 -7 -1 -19 5 -27 15 -7 10 0 -10 18
-45z"/>
<path d="M2940 1616 c0 -2 7 -7 16 -10 8 -3 12 -2 9 4 -6 10 -25 14 -25 6z"/>
<path d="M4487 1602 c3 -7 9 -10 12 -5 3 4 10 11 15 15 4 4 -1 6 -12 5 -12 -1
-18 -6 -15 -15z"/>
<path d="M4364 1563 c-10 -15 -23 -31 -29 -35 -6 -5 -6 -8 0 -8 6 0 2 -5 -7
-11 -10 -5 -18 -15 -18 -21 0 -10 -33 -55 -65 -89 -8 -9 -15 -20 -15 -25 0 -5
-22 -34 -50 -64 -27 -30 -46 -57 -42 -60 4 -3 10 -9 13 -13 3 -5 9 -1 12 8 4
9 3 13 -3 10 -14 -9 -12 9 2 23 16 16 31 15 21 0 -4 -7 5 -5 20 5 32 21 38 21
31 2 -4 -8 -2 -15 4 -15 12 0 11 18 -2 39 -7 11 -10 11 -18 -3 -5 -9 -13 -16
-19 -16 -13 0 14 50 44 80 13 14 32 37 41 52 17 27 19 27 48 12 16 -9 32 -13
34 -11 3 2 -9 10 -26 17 -16 7 -30 15 -30 18 0 3 12 23 27 44 20 29 29 36 36
26 6 -9 7 -7 3 6 -4 10 -1 25 5 33 7 7 9 16 6 19 -3 3 -14 -7 -23 -23z"/>
<path d="M4458 1573 c10 -4 10 -8 1 -19 -9 -11 -8 -14 4 -14 8 0 17 9 20 20 4
16 0 20 -16 19 -12 0 -16 -3 -9 -6z"/>
<path d="M3935 1560 c-16 -7 -17 -9 -3 -9 9 -1 20 4 23 9 7 11 7 11 -20 0z"/>
<path d="M1030 1545 c0 -3 17 -22 39 -44 36 -36 39 -37 39 -16 0 15 -5 22 -13
18 -8 -2 -18 4 -24 15 -9 18 -41 38 -41 27z"/>
<path d="M3925 1530 c-3 -5 -4 -14 0 -20 6 -10 -57 -79 -90 -98 -14 -8 -16
-11 -5 -12 10 0 5 -9 -14 -25 -17 -14 -36 -23 -43 -20 -8 2 -11 1 -8 -4 9 -15
-64 -80 -83 -74 -12 3 -13 2 -5 -4 9 -6 -2 -20 -37 -48 -28 -22 -50 -44 -49
-50 0 -5 3 -4 6 3 2 6 11 12 18 12 8 0 19 9 25 20 6 11 16 20 23 20 7 0 18 9
25 20 7 11 16 20 21 20 4 0 28 19 52 43 24 23 54 49 67 57 12 8 22 18 22 23 0
7 41 53 107 122 7 7 9 15 6 19 -3 3 -12 -2 -20 -12 -14 -16 -14 -16 -9 1 6 19
1 23 -9 7z"/>
<path d="M4436 1525 c1 -6 -4 -19 -12 -30 -8 -10 -14 -27 -14 -36 0 -10 -10
-26 -23 -36 -13 -10 -27 -27 -31 -38 -8 -19 -8 -19 -17 3 -4 12 -10 22 -13 22
-7 0 -1 -35 8 -41 5 -4 -2 -18 -16 -32 -14 -14 -28 -32 -31 -42 -4 -9 -12 -13
-18 -9 -7 4 -9 3 -6 -3 9 -14 -82 -115 -95 -106 -7 4 -8 1 -3 -6 10 -17 -142
-165 -172 -167 -28 -2 -31 -5 -42 -35 -7 -20 -16 -29 -25 -26 -9 4 -12 0 -9
-12 4 -17 7 -16 31 6 15 13 44 38 64 56 101 87 198 189 278 292 30 39 60 74
67 78 7 4 13 14 13 20 0 7 9 21 21 30 11 10 25 31 31 47 5 17 14 30 19 30 5 0
9 6 9 14 0 8 3 16 8 19 4 2 2 2 -5 1 -6 -2 -14 0 -16 4 -2 4 -3 2 -1 -3z
m-451 -545 c-10 -11 -20 -18 -23 -15 -7 6 18 35 31 35 5 0 2 -9 -8 -20z"/>
<path d="M4391 1523 c-1 -17 16 -25 25 -12 4 7 3 9 -4 5 -5 -3 -13 0 -15 6 -4
9 -6 10 -6 1z"/>
<path d="M590 1508 c0 -10 2 -18 4 -18 2 0 11 -3 20 -6 9 -3 16 -1 16 6 0 6
-4 9 -9 5 -6 -3 -14 3 -20 12 -10 17 -10 17 -11 1z"/>
<path d="M4357 1503 c-4 -3 -7 -11 -7 -17 0 -6 5 -5 12 2 6 6 9 14 7 17 -3 3
-9 2 -12 -2z"/>
<path d="M592 1458 c7 -12 19 -28 25 -36 7 -7 17 -21 22 -30 5 -9 12 -14 16
-10 4 3 -3 16 -15 28 -14 14 -19 28 -15 43 5 17 4 19 -4 7 -9 -12 -11 -12 -17
3 -3 9 -10 17 -15 17 -5 0 -4 -10 3 -22z"/>
<path d="M650 1460 c6 -11 12 -20 13 -20 2 0 3 9 3 20 0 11 -6 20 -13 20 -11
0 -11 -5 -3 -20z"/>
<path d="M4350 1460 c-9 -6 -10 -10 -3 -10 6 0 15 5 18 10 8 12 4 12 -15 0z"/>
<path d="M1091 1427 c-6 -15 -12 -37 -14 -49 -2 -13 -7 -31 -10 -40 -26 -69
-39 -124 -26 -111 10 10 35 93 46 148 3 17 9 38 15 48 5 10 7 21 4 24 -3 3
-10 -6 -15 -20z"/>
<path d="M740 1411 c0 -5 7 -14 15 -21 19 -16 19 -40 1 -76 -14 -26 -13 -44 2
-44 4 0 13 21 19 48 9 38 8 50 -3 63 -8 8 -14 21 -14 27 0 7 -4 12 -10 12 -5
0 -10 -4 -10 -9z"/>
<path d="M665 1357 c12 -10 15 -19 9 -28 -5 -8 -9 -18 -10 -24 -1 -5 -5 -18
-9 -27 -4 -11 -3 -18 4 -18 6 0 11 6 11 14 0 8 7 17 16 20 28 11 3 75 -30 76
-6 0 -2 -6 9 -13z m22 -49 c-3 -8 -6 -5 -6 6 -1 11 2 17 5 13 3 -3 4 -12 1
-19z"/>
<path d="M4242 1350 c-10 -17 -10 -21 3 -26 22 -9 30 2 19 26 l-9 20 -13 -20z
m18 -10 c0 -5 -5 -10 -11 -10 -5 0 -7 5 -4 10 3 6 8 10 11 10 2 0 4 -4 4 -10z"/>
<path d="M4280 1354 c8 -10 15 -20 16 -22 1 -2 4 1 7 5 3 5 -4 15 -16 23 -21
12 -21 12 -7 -6z"/>
<path d="M1086 1324 c-7 -19 0 -34 17 -34 7 0 6 4 -3 10 -13 9 -12 12 4 25 16
12 17 15 4 15 -9 0 -19 -7 -22 -16z"/>
<path d="M681 1264 c0 -11 3 -14 6 -6 3 7 2 16 -1 19 -3 4 -6 -2 -5 -13z"/>
<path d="M706 1261 c-4 -6 -2 -11 3 -11 6 0 11 -5 11 -11 0 -5 -4 -8 -9 -4 -5
3 -12 1 -16 -5 -3 -5 1 -10 9 -10 21 0 29 17 18 36 -6 11 -11 13 -16 5z"/>
<path d="M735 1229 c0 -21 3 -39 6 -39 12 0 16 60 5 69 -8 6 -11 -3 -11 -30z"/>
<path d="M4186 1254 c-9 -8 -16 -21 -16 -27 0 -7 5 -4 11 5 5 10 17 22 27 27
9 6 12 11 5 11 -6 0 -19 -7 -27 -16z"/>
<path d="M642 1229 c-11 -30 -23 -89 -18 -89 7 0 36 104 31 109 -3 2 -8 -7
-13 -20z"/>
<path d="M4206 1234 c-23 -23 -20 -30 4 -9 11 10 20 20 20 22 0 7 -9 2 -24
-13z"/>
<path d="M4025 1145 c-54 -52 -102 -95 -106 -95 -12 0 -11 -27 0 -34 5 -3 8 2
7 11 0 9 5 18 13 21 9 3 11 0 6 -8 -6 -9 -4 -11 5 -5 7 4 16 2 22 -6 8 -11 9
-10 4 4 -6 18 9 24 17 7 3 -6 4 -5 3 2 -2 7 -13 12 -25 11 -11 -2 -21 1 -21 6
0 12 29 23 41 16 5 -4 7 0 4 7 -7 18 4 32 45 57 19 11 31 21 26 21 -5 0 10 18
33 40 23 22 38 40 33 40 -5 0 -53 -43 -107 -95z"/>
<path d="M1006 1137 c-10 -39 -19 -79 -20 -87 -1 -9 -5 -21 -10 -28 -4 -6 -2
-12 3 -12 6 0 11 5 11 10 0 16 2 23 12 50 16 42 37 140 30 140 -4 0 -15 -33
-26 -73z"/>
<path d="M720 1140 c-6 -23 -14 -48 -17 -56 -3 -8 -1 -14 5 -14 9 0 34 101 27
109 -2 1 -9 -16 -15 -39z"/>
<path d="M3556 1165 c-8 -8 -19 -15 -25 -15 -5 0 -17 -8 -27 -17 -9 -9 -28
-17 -43 -18 -16 0 -25 -6 -23 -14 1 -7 -7 -15 -18 -18 -11 -3 -20 -9 -20 -13
0 -10 -62 -35 -78 -32 -7 2 -11 -2 -10 -9 2 -6 -3 -14 -11 -17 -8 -2 -11 0 -8
5 3 5 -4 10 -16 10 -18 2 -19 0 -7 -8 11 -8 8 -9 -15 -5 -16 3 -24 3 -17 0 17
-8 15 -25 -3 -18 -8 4 -15 14 -15 23 0 13 -2 14 -9 2 -7 -10 -4 -19 7 -29 16
-13 16 -13 0 -8 -10 3 -24 -1 -32 -9 -25 -25 -68 -38 -78 -23 -6 10 -8 9 -8
-4 0 -13 -8 -15 -42 -12 -31 3 -39 1 -28 -6 10 -6 11 -10 3 -10 -7 0 -13 -4
-13 -10 0 -5 7 -10 15 -10 8 0 15 7 15 15 0 8 5 15 11 15 5 0 7 -5 3 -12 -5
-8 -2 -9 12 -4 10 4 37 14 59 21 61 19 125 49 125 58 0 4 4 6 9 3 9 -6 98 36
153 72 46 30 120 72 127 72 3 0 12 9 19 20 14 24 9 26 -12 5z"/>
<path d="M610 1111 c0 -11 -3 -27 -7 -37 -4 -11 -3 -15 4 -11 13 8 23 67 11
67 -4 0 -8 -9 -8 -19z"/>
<path d="M3374 1105 c-16 -13 -16 -14 -1 -9 13 5 16 2 11 -12 -3 -11 -2 -15 3
-8 4 6 15 14 23 17 12 4 11 6 -3 6 -10 1 -15 6 -12 11 9 14 2 12 -21 -5z"/>
<path d="M4089 1103 c-13 -16 -12 -17 4 -4 9 7 17 15 17 17 0 8 -8 3 -21 -13z"/>
<path d="M637 1084 c-9 -9 1 -24 16 -24 7 0 6 4 -3 10 -13 8 -12 10 3 10 9 0
17 -5 17 -11 0 -5 5 -7 10 -4 6 4 8 11 5 16 -7 10 -38 12 -48 3z"/>
<path d="M620 1052 c0 -7 -5 -11 -11 -9 -6 1 -17 -18 -25 -43 -17 -55 -17 -60
-3 -60 5 0 8 4 5 8 -3 5 6 30 19 57 14 27 23 51 20 53 -3 3 -5 0 -5 -6z"/>
<path d="M690 1028 c0 -36 4 -35 14 5 4 16 2 27 -4 27 -5 0 -10 -14 -10 -32z"/>
<path d="M1002 1018 c-10 -30 -10 -31 3 -14 13 17 21 46 12 46 -1 0 -8 -15
-15 -32z"/>
<path d="M1582 1039 c-13 -5 -28 -7 -33 -3 -5 3 -9 -1 -9 -9 0 -12 6 -12 44 0
40 13 48 13 75 0 17 -9 31 -12 31 -7 0 8 -55 30 -74 29 -6 0 -22 -4 -34 -10z"/>
<path d="M1491 1023 c9 -10 8 -13 -5 -13 -10 0 -14 -5 -10 -11 4 -7 1 -10 -7
-7 -8 3 -30 -4 -50 -14 -20 -10 -45 -20 -55 -22 -11 -3 -32 -9 -47 -15 -38
-15 -46 -13 -23 4 24 18 14 20 -13 3 -17 -10 -17 -13 -4 -26 9 -10 17 -12 21
-5 6 8 38 23 62 28 46 10 70 18 70 24 0 4 10 7 21 8 12 1 29 8 38 16 9 8 22
12 29 10 9 -4 13 1 10 13 -1 10 -13 18 -25 19 -18 1 -20 -1 -12 -12z"/>
<path d="M1756 1031 c-4 -5 -2 -12 3 -15 5 -4 12 -2 15 3 4 5 2 12 -3 15 -5 4
-12 2 -15 -3z"/>
<path d="M1826 1026 c5 -13 4 -17 -3 -13 -18 12 -42 -3 -36 -21 5 -14 3 -15
-8 -4 -16 15 -33 16 -23 1 9 -15 91 -49 117 -48 21 0 21 1 2 8 -11 5 -23 7
-27 4 -4 -2 -12 6 -18 17 -9 16 -8 25 1 36 10 12 10 17 0 27 -10 9 -11 8 -5
-7z m-19 -48 c-3 -7 -5 -2 -5 12 0 14 2 19 5 13 2 -7 2 -19 0 -25z"/>
<path d="M664 1008 c3 -10 9 -25 13 -35 5 -12 3 -14 -7 -8 -9 6 -11 4 -5 -4 5
-8 11 -9 17 -3 6 6 4 20 -7 38 -9 16 -14 21 -11 12z"/>
<path d="M3853 992 c-26 -22 -29 -28 -13 -28 10 0 16 4 14 8 -3 4 -1 8 5 8 5
0 14 -7 19 -16 6 -11 12 -13 16 -6 4 6 14 9 24 6 14 -5 14 -4 3 4 -8 6 -20 8
-27 5 -16 -6 -29 16 -16 29 8 8 16 6 27 -6 9 -9 21 -16 27 -16 6 0 -1 9 -15
20 -14 11 -27 20 -29 20 -1 -1 -17 -13 -35 -28z"/>
<path d="M3940 1009 c0 -5 5 -7 10 -4 6 3 10 8 10 11 0 2 -4 4 -10 4 -5 0 -10
-5 -10 -11z"/>
<path d="M1016 995 c-9 -26 -7 -32 5 -12 6 10 9 21 6 23 -2 3 -7 -2 -11 -11z"/>
<path d="M957 975 c-6 -35 -6 -37 9 -21 6 6 8 20 4 31 -6 16 -8 15 -13 -10z"/>
<path d="M1916 948 c3 -4 0 -8 -7 -8 -12 0 -3 -15 9 -15 4 0 13 -4 20 -8 6 -5
12 -4 12 2 0 5 -6 12 -12 14 -10 4 -9 8 2 16 12 8 11 10 -7 8 -12 0 -19 -5
-17 -9z"/>
<path d="M2025 950 c-16 -7 -17 -9 -3 -9 9 -1 20 4 23 9 7 11 7 11 -20 0z"/>
<path d="M3782 940 c-7 -12 -17 -18 -22 -15 -6 3 -10 2 -10 -3 0 -5 -12 -15
-27 -23 -15 -8 -55 -33 -89 -55 -47 -32 -56 -41 -38 -40 13 0 26 7 29 14 3 7
10 10 16 6 7 -4 9 -3 5 4 -3 6 2 13 13 17 10 3 29 15 42 26 12 11 29 17 36 14
8 -2 11 -1 8 5 -3 5 5 14 17 21 37 20 61 49 40 49 -4 0 -13 -9 -20 -20z"/>
<path d="M1203 937 c0 -7 11 -13 24 -13 27 -2 27 -1 -3 14 -15 8 -21 8 -21 -1z"/>
<path d="M618 933 c7 -3 16 -2 19 1 4 3 -2 6 -13 5 -11 0 -14 -3 -6 -6z"/>
<path d="M667 933 c-4 -3 -7 -16 -7 -29 0 -12 -6 -25 -12 -27 -8 -4 -7 -6 3
-6 11 -1 18 10 22 32 5 35 4 41 -6 30z"/>
<path d="M3869 923 c-13 -16 -12 -17 4 -4 16 13 21 21 13 21 -2 0 -10 -8 -17
-17z"/>
<path d="M549 868 c-7 -35 -14 -70 -15 -78 -2 -8 -12 -46 -23 -85 -24 -82 -24
-85 -11 -85 6 0 10 11 10 24 0 14 5 28 11 32 6 3 9 14 6 24 -2 9 4 33 13 53
10 21 15 37 10 37 -14 0 23 129 39 133 11 3 9 5 -5 6 -18 1 -23 -8 -35 -61z"/>
<path d="M940 915 c0 -8 4 -15 8 -15 5 0 9 7 9 15 0 8 -4 15 -9 15 -4 0 -8 -7
-8 -15z"/>
<path d="M1244 905 c-10 -8 -14 -14 -9 -15 15 0 40 18 34 24 -3 3 -14 -1 -25
-9z"/>
<path d="M1966 911 c15 -15 68 -26 60 -12 -4 6 -12 9 -17 6 -5 -4 -9 -1 -9 4
0 6 -10 11 -22 11 -14 0 -18 -4 -12 -9z"/>
<path d="M3883 905 c-15 -16 -16 -25 -5 -25 4 0 13 9 20 20 14 23 3 26 -15 5z"/>
<path d="M1205 901 c3 -6 -3 -15 -12 -21 -17 -11 -17 -11 0 -6 10 3 21 6 23 6
2 0 4 7 4 15 0 8 -5 15 -11 15 -5 0 -8 -4 -4 -9z"/>
<path d="M2981 901 c-7 -5 -21 -7 -30 -4 -9 2 -25 -3 -36 -12 l-20 -16 20 5
c11 2 35 7 52 11 18 4 35 11 38 16 8 11 -6 11 -24 0z"/>
<path d="M2040 895 c0 -9 49 -25 93 -30 23 -2 62 -10 87 -16 27 -7 127 -13
249 -13 166 -1 205 2 209 13 3 8 0 11 -6 7 -6 -3 -12 -1 -15 6 -2 7 -3 5 -2
-4 3 -15 -12 -17 -164 -15 -91 1 -172 6 -178 10 -7 5 -16 6 -21 3 -4 -2 -30 0
-57 5 -28 5 -72 12 -100 15 -27 3 -58 10 -67 15 -19 10 -28 11 -28 4z"/>
<path d="M3826 888 c3 -5 10 -6 15 -3 13 9 11 12 -6 12 -8 0 -12 -4 -9 -9z"/>
<path d="M933 870 c3 -10 2 -20 -3 -22 -4 -2 -10 -15 -13 -30 -12 -45 21 -44
143 4 105 41 128 55 95 55 -8 0 -15 -4 -15 -8 0 -5 -7 -5 -17 -2 -11 5 -14 3
-8 -6 6 -10 0 -12 -26 -6 -27 5 -31 4 -19 -5 12 -10 11 -11 -8 -7 -12 3 -20 2
-17 -2 2 -5 -7 -13 -22 -20 -21 -10 -28 -9 -34 1 -7 10 -9 9 -9 -4 0 -20 -38
-34 -53 -19 -8 8 -8 11 2 11 7 0 9 5 6 10 -4 6 -1 17 5 25 6 8 9 18 6 24 -3 5
0 12 6 14 8 3 5 6 -6 6 -13 1 -17 -4 -13 -19z"/>
<path d="M965 870 c-3 -5 -1 -10 4 -10 6 0 11 5 11 10 0 6 -2 10 -4 10 -3 0
-8 -4 -11 -10z"/>
<path d="M2814 871 c-2 -3 -12 -6 -22 -7 -9 -1 -37 -7 -62 -12 -64 -14 -13
-14 73 -1 81 13 104 24 51 24 -20 0 -38 -2 -40 -4z"/>
<path d="M3833 865 c-17 -12 -28 -13 -50 -4 -15 5 -23 6 -18 1 21 -20 50 -21
75 -2 29 23 24 27 -7 5z"/>
<path d="M634 803 c-15 -49 -31 -148 -19 -118 11 27 44 169 41 172 -2 3 -12
-22 -22 -54z"/>
<path d="M3765 829 c4 -5 1 -18 -6 -27 -11 -13 -8 -12 9 2 26 23 26 22 6 30
-9 3 -12 2 -9 -5z"/>
<path d="M3545 790 c-3 -5 -1 -10 4 -10 6 0 11 5 11 10 0 6 -2 10 -4 10 -3 0
-8 -4 -11 -10z"/>
<path d="M3695 775 c-16 -14 -34 -25 -39 -25 -5 0 -17 -7 -27 -16 -9 -8 -26
-16 -37 -17 -11 0 -18 -5 -16 -9 7 -12 -14 -10 -38 3 -16 9 -19 8 -13 -2 6 -9
3 -11 -9 -6 -10 4 -15 3 -11 -4 4 -5 16 -7 28 -3 25 7 23 5 -17 -20 -25 -16
-28 -16 -23 -2 10 25 -2 19 -14 -6 -9 -22 -9 -21 -6 5 3 15 0 27 -4 27 -5 0
-9 -10 -9 -21 0 -19 -2 -20 -17 -8 -16 12 -16 12 0 -7 16 -20 16 -22 2 -28 -9
-3 -26 -1 -38 5 -21 10 -21 10 -3 -5 15 -12 16 -16 5 -16 -8 0 -21 6 -29 13
-11 9 -11 8 0 -7 14 -18 13 -18 -10 -12 -19 6 -21 5 -10 -3 13 -9 13 -11 -2
-11 -10 0 -18 -4 -18 -10 0 -12 13 -13 26 -2 5 5 39 22 77 37 37 15 67 32 67
37 0 5 4 7 9 3 5 -3 12 -1 16 5 3 5 23 17 43 26 20 8 44 20 52 25 8 5 24 13
35 18 27 13 82 60 70 60 -5 0 -23 -11 -40 -24z"/>
<path d="M3478 764 c-45 -22 -73 -47 -46 -42 8 2 12 -5 10 -17 -3 -18 -2 -18
13 3 9 12 13 27 9 33 -4 8 1 9 16 4 17 -5 21 -4 15 6 -6 9 -3 11 9 6 9 -4 15
-3 11 2 -3 5 1 11 7 14 7 2 11 6 8 9 -3 2 -26 -6 -52 -18z m-18 -34 c0 -5 -2
-10 -4 -10 -3 0 -8 5 -11 10 -3 6 -1 10 4 10 6 0 11 -4 11 -10z"/>
<path d="M3610 780 c-9 -6 -10 -10 -3 -10 6 0 15 5 18 10 8 12 4 12 -15 0z"/>
<path d="M900 770 c0 -5 5 -10 10 -10 6 0 10 5 10 10 0 6 -4 10 -10 10 -5 0
-10 -4 -10 -10z"/>
<path d="M3598 753 c6 -2 18 -2 25 0 6 3 1 5 -13 5 -14 0 -19 -2 -12 -5z"/>
<path d="M536 723 c-6 -14 -5 -15 5 -6 7 7 10 15 7 18 -3 3 -9 -2 -12 -12z"/>
<path d="M3390 715 c-7 -9 -8 -15 -2 -15 5 0 12 7 16 15 3 8 4 15 2 15 -2 0
-9 -7 -16 -15z"/>
<path d="M1616 703 c-3 -4 -12 -8 -19 -9 -7 -1 -30 -10 -52 -18 -28 -11 -31
-15 -12 -11 22 4 27 3 21 -7 -4 -7 3 -3 15 10 12 12 27 20 32 16 5 -3 16 -1
22 5 9 7 20 6 38 -3 37 -19 122 -47 127 -41 3 2 -6 8 -19 14 -13 5 -47 19 -76
30 -56 23 -66 25 -77 14z"/>
<path d="M3298 682 c-77 -31 -96 -45 -47 -36 19 4 36 10 39 14 3 4 22 13 43
19 20 7 37 17 37 22 0 5 -1 9 -2 8 -2 0 -33 -13 -70 -27z"/>
<path d="M584 688 c3 -10 9 -25 13 -35 4 -11 3 -14 -5 -9 -8 5 -10 2 -6 -9 4
-8 1 -21 -4 -28 -13 -15 -12 -57 1 -57 5 0 6 7 3 16 -4 9 -2 22 2 28 18 22 21
61 6 86 -9 14 -13 17 -10 8z"/>
<path d="M1605 666 c-26 -11 -27 -13 -10 -20 11 -4 16 -4 12 0 -4 4 5 13 20
20 16 7 24 13 18 13 -5 0 -23 -6 -40 -13z"/>
<path d="M1453 644 c-38 -16 -48 -30 -27 -38 8 -3 12 -2 9 4 -3 6 0 10 7 10 7
0 24 9 38 20 29 23 19 24 -27 4z"/>
<path d="M1669 643 c-13 -16 -12 -17 4 -4 16 13 21 21 13 21 -2 0 -10 -8 -17
-17z"/>
<path d="M522 630 c0 -14 2 -19 5 -12 2 6 2 18 0 25 -3 6 -5 1 -5 -13z"/>
<path d="M1811 634 c13 -16 39 -19 39 -5 0 5 -11 11 -25 13 -20 4 -23 3 -14
-8z"/>
<path d="M3190 635 c0 -8 2 -15 4 -15 2 0 6 7 10 15 3 8 1 15 -4 15 -6 0 -10
-7 -10 -15z"/>
<path d="M3160 630 c0 -5 5 -10 10 -10 6 0 10 5 10 10 0 6 -4 10 -10 10 -5 0
-10 -4 -10 -10z"/>
<path d="M3287 629 c7 -7 15 -10 18 -7 3 3 -2 9 -12 12 -14 6 -15 5 -6 -5z"/>
<path d="M1860 619 c0 -5 7 -9 16 -9 8 0 12 -4 9 -10 -3 -5 -2 -10 4 -10 5 0
11 5 13 12 3 8 11 6 29 -5 13 -9 42 -18 64 -21 77 -9 120 -18 138 -27 9 -6 22
-7 27 -4 6 4 14 -4 19 -17 6 -15 10 -17 10 -7 1 13 11 16 46 14 67 -2 45 11
-31 19 -36 4 -95 13 -130 22 -36 8 -69 12 -74 9 -5 -3 -11 -1 -15 5 -4 6 -11
7 -17 4 -6 -4 -13 -2 -17 4 -8 14 -91 33 -91 21z"/>
<path d="M3045 600 c-55 -15 -145 -33 -200 -40 -55 -7 -103 -16 -108 -20 -11
-9 63 -4 119 8 27 6 65 13 84 16 19 3 46 8 60 11 20 6 22 5 10 -5 -13 -10 -12
-11 3 -6 10 3 21 6 23 6 3 0 3 4 0 9 -3 5 9 12 27 15 72 14 80 16 85 21 14 13
-10 10 -103 -15z"/>
<path d="M1386 612 c-6 -10 44 -36 52 -27 3 3 0 5 -6 5 -6 0 -17 7 -26 15 -8
8 -17 11 -20 7z"/>
<path d="M1616 606 c3 -9 17 -16 29 -16 13 0 27 -4 30 -10 8 -12 25 -13 25 -1
0 9 -38 24 -54 22 -4 -1 -14 4 -22 10 -12 10 -13 9 -8 -5z"/>
<path d="M1678 608 c6 -6 18 -8 28 -6 14 3 12 5 -9 10 -19 3 -25 2 -19 -4z"/>
<path d="M485 599 c-3 -8 -16 -59 -29 -114 -22 -90 -23 -102 -10 -125 14 -23
13 -12 -2 25 -4 10 -2 15 6 13 7 -2 15 4 17 12 4 13 3 13 -7 0 -10 -12 -10
-10 -5 10 3 14 8 39 11 56 2 17 11 53 19 80 8 26 12 50 10 52 -3 3 -7 -1 -10
-9z"/>
<path d="M1345 598 c-11 -7 -24 -12 -30 -13 -24 -1 -85 -27 -85 -36 0 -6 -4
-8 -9 -5 -5 3 -24 -2 -42 -11 -19 -10 -38 -18 -44 -19 -5 0 -16 -2 -22 -2 -7
-1 -13 -7 -13 -13 0 -5 4 -8 9 -4 5 3 12 1 16 -5 3 -5 11 -10 18 -10 6 0 2 7
-9 15 -10 8 -14 15 -7 15 14 0 43 -27 43 -41 0 -5 5 -9 11 -9 8 0 9 4 0 13 -6
8 -8 17 -4 20 3 4 1 7 -6 7 -7 0 -9 5 -6 10 5 8 11 8 20 0 10 -8 15 -8 21 1 4
8 3 9 -4 5 -7 -4 -12 -2 -12 3 0 6 10 11 21 11 12 0 28 8 35 18 13 16 15 16
30 -3 12 -14 15 -15 11 -4 -7 20 10 39 29 32 7 -2 23 5 35 16 25 24 24 26 -6
9z"/>
<path d="M1535 600 c-19 -8 -19 -9 3 -9 12 -1 22 4 22 9 0 6 -1 10 -2 9 -2 0
-12 -4 -23 -9z"/>
<path d="M1562 590 c-7 -12 -18 -20 -25 -18 -7 1 -22 -3 -34 -10 -13 -7 -23
-10 -23 -7 0 4 -7 0 -15 -9 -19 -18 -42 -11 -50 15 -4 10 -11 19 -17 19 -7 0
-6 -5 1 -14 10 -11 8 -15 -6 -19 -14 -4 -13 -5 5 -6 12 0 22 -6 22 -12 0 -6
-9 -8 -21 -4 -15 5 -19 4 -15 -4 4 -6 2 -11 -3 -11 -22 0 -26 -2 -41 -15 -8
-7 -32 -16 -54 -19 -32 -5 -37 -4 -32 9 3 10 2 13 -5 10 -6 -4 -8 -13 -5 -20
3 -8 -10 -19 -35 -29 -42 -17 -92 -23 -54 -6 13 6 15 9 5 9 -8 0 -22 -4 -30
-9 -10 -6 -11 -10 -2 -10 19 0 14 -20 -5 -20 -22 0 -49 -17 -41 -25 3 -3 25 3
49 13 24 11 64 27 89 37 25 9 53 21 62 26 10 5 24 9 32 9 8 0 21 7 30 15 8 9
17 15 18 14 4 -3 76 21 118 39 19 9 40 17 46 18 38 7 54 18 54 35 0 24 -2 24
-18 -1z"/>
<path d="M3308 603 c7 -3 16 -2 19 1 4 3 -2 6 -13 5 -11 0 -14 -3 -6 -6z"/>
<path d="M1590 590 c0 -5 5 -10 10 -10 6 0 10 5 10 10 0 6 -4 10 -10 10 -5 0
-10 -4 -10 -10z"/>
<path d="M3120 592 c-8 -4 -16 -13 -18 -20 -1 -8 2 -11 9 -6 9 5 10 1 7 -14
-4 -13 -2 -20 3 -16 6 3 9 13 7 22 -2 10 5 22 17 29 22 13 2 17 -25 5z"/>
<path d="M3154 574 c-18 -14 -18 -15 4 -4 12 6 22 13 22 15 0 8 -5 6 -26 -11z"/>
<path d="M3300 579 c0 -4 -9 -11 -21 -14 -11 -4 -19 -9 -17 -11 6 -5 68 19 68
27 0 3 -7 6 -15 6 -8 0 -15 -4 -15 -8z"/>
<path d="M1715 570 c3 -5 8 -10 11 -10 2 0 4 5 4 10 0 6 -5 10 -11 10 -5 0 -7
-4 -4 -10z"/>
<path d="M1901 564 c0 -11 3 -14 6 -6 3 7 2 16 -1 19 -3 4 -6 -2 -5 -13z"/>
<path d="M1945 559 c-11 -16 -1 -19 13 -3 7 8 8 14 3 14 -5 0 -13 -5 -16 -11z"/>
<path d="M1774 551 c10 -16 110 -43 131 -35 14 6 16 4 10 -6 -5 -8 -4 -11 3
-6 6 3 14 1 17 -5 4 -5 13 -8 21 -5 8 3 14 1 14 -4 0 -6 9 -10 21 -10 11 0 17
5 14 10 -4 6 -11 8 -16 5 -5 -4 -9 -1 -9 4 0 6 5 11 12 11 6 0 9 3 5 6 -3 3
-14 1 -23 -4 -22 -12 -58 3 -48 19 4 7 -2 6 -16 -1 -17 -9 -28 -9 -51 0 -16 7
-26 17 -23 22 4 6 -1 6 -13 0 -12 -7 -24 -7 -37 0 -14 8 -17 7 -12 -1z"/>
<path d="M3210 547 c0 -4 -4 -6 -10 -2 -5 3 -26 -2 -47 -11 -21 -9 -47 -19
-58 -21 -50 -9 -138 -37 -128 -40 15 -5 163 34 178 47 7 6 17 10 21 9 5 -1 11
-1 14 1 3 1 16 4 30 6 32 6 46 20 20 20 -11 0 -20 -4 -20 -9z"/>
<path d="M1336 542 c2 -3 -1 -11 -7 -19 -8 -9 -8 -13 -1 -13 16 0 26 20 15 30
-6 4 -8 5 -7 2z"/>
<path d="M1952 534 c-7 -8 -8 -14 -3 -14 10 0 25 19 20 25 -2 1 -10 -3 -17
-11z"/>
<path d="M561 503 c-6 -21 -11 -44 -11 -52 0 -9 -8 -12 -25 -9 -13 3 -22 2
-20 -3 3 -4 0 -9 -7 -12 -7 -2 -3 -3 8 -1 30 5 35 -16 14 -61 -17 -37 -18 -55
-2 -55 10 0 33 100 26 111 -3 5 -1 9 4 9 9 0 34 101 27 108 -2 2 -8 -13 -14
-35z"/>
<path d="M2290 531 c0 -6 16 -7 35 -4 20 3 41 1 48 -6 16 -12 237 -11 237 2 0
4 -50 7 -110 6 -61 -1 -114 1 -117 5 -10 10 -93 7 -93 -3z"/>
<path d="M2626 531 c-5 -8 84 -3 93 5 2 2 -16 4 -42 4 -25 0 -48 -4 -51 -9z"/>
<path d="M1295 519 c-4 -6 -5 -12 -2 -15 2 -3 7 2 10 11 7 17 1 20 -8 4z"/>
<path d="M2760 520 c-9 -6 -10 -10 -3 -10 6 0 15 5 18 10 8 12 4 12 -15 0z"/>
<path d="M2215 500 c3 -5 8 -10 11 -10 2 0 4 5 4 10 0 6 -5 10 -11 10 -5 0 -7
-4 -4 -10z"/>
<path d="M2248 503 c6 -2 18 -2 25 0 6 3 1 5 -13 5 -14 0 -19 -2 -12 -5z"/>
<path d="M2628 503 c7 -3 16 -2 19 1 4 3 -2 6 -13 5 -11 0 -14 -3 -6 -6z"/>
<path d="M2795 500 c3 -4 14 -10 25 -13 11 -3 18 -2 15 3 -3 4 -14 10 -25 13
-11 3 -18 2 -15 -3z"/>
<path d="M2530 496 c0 -2 6 -9 14 -15 11 -9 16 -9 22 0 4 8 3 9 -4 5 -7 -4
-12 -2 -12 3 0 6 -4 11 -10 11 -5 0 -10 -2 -10 -4z"/>
<path d="M2758 493 c7 -3 16 -2 19 1 4 3 -2 6 -13 5 -11 0 -14 -3 -6 -6z"/>
<path d="M1038 483 c-10 -2 -18 -11 -18 -19 0 -8 -5 -14 -11 -14 -5 0 -7 5 -4
10 10 16 -12 12 -29 -5 -8 -9 -19 -16 -23 -17 -4 0 -14 -3 -21 -6 -11 -4 -11
-6 0 -13 7 -5 18 -9 23 -9 6 0 3 5 -5 10 -12 8 -11 10 8 10 12 0 22 5 22 10 0
6 5 10 11 10 5 0 7 -5 3 -11 -4 -8 1 -9 17 -5 19 4 17 2 -6 -10 l-30 -15 29 6
c23 5 27 3 23 -9 -4 -9 -2 -18 4 -21 5 -4 7 -11 4 -16 -4 -5 -2 -9 3 -9 14 0
36 29 28 37 -3 3 -6 1 -6 -5 0 -16 -16 -15 -18 1 0 6 -4 27 -7 45 -5 24 -3 32
9 32 8 0 18 5 21 10 6 10 2 11 -27 3z"/>
<path d="M2250 480 c0 -5 5 -10 10 -10 6 0 10 5 10 10 0 6 -4 10 -10 10 -5 0
-10 -4 -10 -10z"/>
<path d="M2028 473 c7 -3 16 -2 19 1 4 3 -2 6 -13 5 -11 0 -14 -3 -6 -6z"/>
<path d="M2067 468 c2 -5 13 -8 24 -8 10 0 19 3 19 8 0 4 -11 7 -24 7 -13 0
-22 -3 -19 -7z"/>
<path d="M2122 469 c6 -17 147 -40 229 -37 30 1 61 -2 68 -7 14 -8 269 2 351
14 34 5 45 11 48 26 3 19 2 19 -9 2 -9 -15 -18 -17 -45 -12 -21 3 -34 2 -34
-4 0 -6 -22 -10 -52 -8 -29 1 -68 -2 -87 -7 -25 -6 -32 -5 -26 4 6 9 3 9 -13
1 -25 -13 -114 -15 -127 -2 -6 5 -39 11 -75 14 -43 3 -58 2 -45 -4 15 -7 11
-8 -15 -4 -48 8 -101 16 -125 18 -11 1 -26 6 -34 11 -9 6 -12 5 -9 -5z"/>
<path d="M2900 468 c0 -11 38 -10 44 1 3 5 -5 8 -19 7 -14 0 -25 -4 -25 -8z"/>
<path d="M2836 459 c6 -11 41 -12 47 -1 3 4 -8 7 -24 8 -15 1 -26 -3 -23 -7z"/>
<path d="M2588 453 c6 -2 18 -2 25 0 6 3 1 5 -13 5 -14 0 -19 -2 -12 -5z"/>
<path d="M895 421 c-3 -6 -11 -9 -16 -6 -5 4 -9 1 -9 -4 0 -13 10 -14 30 -1 8
5 12 12 8 15 -3 4 -9 1 -13 -4z"/>
<path d="M830 400 c-8 -5 -11 -12 -8 -16 4 -3 14 1 23 10 18 17 9 21 -15 6z"/>
<path d="M912 395 c-11 -12 -10 -15 3 -15 8 0 15 7 15 15 0 18 -2 18 -18 0z"/>
<path d="M990 396 c0 -2 8 -10 18 -17 15 -13 16 -12 3 4 -13 16 -21 21 -21 13z"/>
<path d="M768 378 c-16 -5 -28 -14 -28 -19 0 -6 -5 -7 -10 -4 -12 8 -40 -12
-40 -27 0 -6 7 -5 15 2 8 7 22 10 30 6 9 -3 13 -2 10 4 -3 6 -2 10 4 10 5 0
12 -6 15 -12 4 -7 4 -3 2 10 -3 18 0 22 20 22 13 0 24 5 24 10 0 12 -6 12 -42
-2z"/>
<path d="M958 383 c7 -3 16 -2 19 1 4 3 -2 6 -13 5 -11 0 -14 -3 -6 -6z"/>
<path d="M870 359 c0 -5 5 -7 10 -4 6 3 10 8 10 11 0 2 -4 4 -10 4 -5 0 -10
-5 -10 -11z"/>
<path d="M968 352 c3 -10 1 -13 -6 -8 -7 4 -12 2 -12 -3 0 -16 15 -13 30 3 6
8 19 12 28 9 9 -3 14 -3 10 1 -3 4 -17 9 -31 10 -19 2 -24 -1 -19 -12z"/>
<path d="M420 346 c0 -8 -3 -21 -6 -30 -3 -9 -2 -16 3 -16 5 0 10 14 11 30 1
17 0 30 -3 30 -3 0 -5 -6 -5 -14z"/>
<path d="M835 350 c-16 -7 -17 -9 -3 -9 9 -1 20 4 23 9 7 11 7 11 -20 0z"/>
<path d="M900 349 c0 -5 5 -7 10 -4 6 3 10 8 10 11 0 2 -4 4 -10 4 -5 0 -10
-5 -10 -11z"/>
<path d="M615 317 c-27 -11 -53 -25 -56 -30 -3 -5 -10 -8 -15 -7 -5 1 -9 -3
-10 -9 -2 -7 -1 -8 3 -1 2 5 9 7 14 4 6 -4 6 -10 0 -18 -8 -9 -6 -18 3 -32 12
-16 17 -17 28 -6 11 11 10 12 -3 7 -10 -4 -19 0 -22 9 -4 9 -2 16 4 16 5 0 9
7 7 16 -2 13 12 22 55 36 31 11 57 24 57 29 0 12 -7 11 -65 -14z"/>
<path d="M920 332 c0 -8 -6 -10 -49 -14 -11 -1 -17 -6 -15 -10 3 -4 -1 -8 -10
-8 -8 0 -16 3 -19 8 -2 4 -2 1 0 -7 2 -8 -2 -11 -12 -7 -9 3 -13 2 -10 -4 3
-6 -3 -10 -14 -10 -12 0 -21 -4 -21 -10 0 -13 0 -14 64 15 31 14 63 25 70 25
7 0 19 7 26 15 9 10 9 15 1 15 -6 0 -11 -4 -11 -8z"/>
<path d="M715 320 c3 -5 8 -10 11 -10 2 0 4 5 4 10 0 6 -5 10 -11 10 -5 0 -7
-4 -4 -10z"/>
<path d="M775 300 c-3 -5 -1 -10 4 -10 6 0 11 5 11 10 0 6 -2 10 -4 10 -3 0
-8 -4 -11 -10z"/>
<path d="M458 293 c7 -3 16 -2 19 1 4 3 -2 6 -13 5 -11 0 -14 -3 -6 -6z"/>
<path d="M396 253 c-4 -21 -9 -47 -12 -58 -4 -16 -3 -17 4 -5 6 8 13 31 17 50
4 19 13 38 19 42 7 5 5 8 -5 8 -12 0 -19 -12 -23 -37z"/>
<path d="M605 280 c-3 -5 -1 -10 4 -10 6 0 11 5 11 10 0 6 -2 10 -4 10 -3 0
-8 -4 -11 -10z"/>
<path d="M478 273 c7 -3 16 -2 19 1 4 3 -2 6 -13 5 -11 0 -14 -3 -6 -6z"/>
<path d="M750 269 c0 -6 -6 -9 -14 -6 -8 3 -20 -1 -26 -9 -7 -8 -19 -14 -26
-14 -8 0 -14 -4 -14 -9 0 -6 20 -3 45 6 25 8 45 21 45 29 0 8 -2 14 -5 14 -3
0 -5 -5 -5 -11z"/>
<path d="M585 250 c-3 -6 1 -7 9 -4 18 7 21 14 7 14 -6 0 -13 -4 -16 -10z"/>
<path d="M607 211 c-27 -9 -46 -19 -42 -22 8 -8 95 21 95 32 0 5 -1 9 -2 8 -2
0 -25 -8 -51 -18z"/>
<path d="M490 210 c-9 -6 -10 -10 -3 -10 6 0 15 5 18 10 8 12 4 12 -15 0z"/>
<path d="M485 170 c-3 -11 -9 -19 -13 -18 -9 2 -82 -30 -82 -36 0 -8 64 16 71
26 3 6 9 9 13 9 19 -3 29 0 23 6 -4 3 -2 12 4 20 8 9 8 13 1 13 -6 0 -13 -9
-17 -20z"/>
<path d="M516 175 c-3 -8 -1 -15 4 -15 6 0 10 4 10 10 0 5 7 6 17 3 11 -4 14
-3 9 5 -10 17 -33 15 -40 -3z"/>
<path d="M393 148 c-19 -9 -38 -36 -31 -43 2 -2 16 10 31 26 16 16 27 29 25
28 -2 0 -13 -5 -25 -11z"/>
</g>
</svg>
