<svg width="263" height="101" viewBox="0 0 263 101" fill="none" xmlns="http://www.w3.org/2000/svg">
<path fill-rule="evenodd" clip-rule="evenodd" d="M11.329 100.025C12.0237 100.061 12.7256 100.087 13.4202 100.087L13.6421 100.047C24.451 100.047 33.5979 95.9268 40.0898 88.128C47.0909 79.713 50.7787 67.3201 50.7787 52.2803L50.7351 49.4473L50.8842 49.3598C65.8065 40.6313 74.706 27.3269 74.706 13.7674C74.7024 7.68581 71.7747 0.43023 63.5334 0H62.9515H62.886C58.0671 0 53.2373 2.58138 49.6003 7.08422C44.9596 12.8376 42.512 21.5225 42.512 32.1615L42.4392 45.9545L42.261 46.0274C35.0854 49.0645 28.9935 50.4792 23.0835 50.4792H22.909C22.3452 50.4755 21.7706 50.4609 21.2069 50.4318C13.6603 50.038 8.77953 45.3492 8.77953 38.4874C8.77953 27.8775 22.0288 17.3842 36.0564 16.8957H36.2928V2.67618L35.9291 2.73452C27.2806 4.10177 18.5847 8.40408 12.0709 14.5367C4.87711 21.311 0.927416 29.8208 0.927416 38.502C0.927416 49.1994 8.81226 56.7977 20.5668 57.4102C21.0905 57.454 21.6215 57.454 22.1489 57.454H22.3198C30.6811 57.454 39.4242 54.5153 41.9046 53.6184L42.3192 53.4652L42.301 53.9101C41.4936 73.0845 29.1499 83.1183 17.3736 83.1183H17.2717C16.9481 83.1147 16.6207 83.1074 16.3007 83.0892C10.2016 82.772 5.15352 81.2735 0.425521 78.3749L0 78.116V97.3925L0.210942 97.4727C3.75494 98.9205 7.50972 99.7824 11.329 100.025ZM53.9719 14.7409C55.9177 11.2844 58.6054 9.38485 61.5403 9.38485L61.5549 9.39215H61.8677C65.1445 9.56351 67.1048 12.1303 67.1048 16.254C67.1085 24.6945 60.8893 34.3127 50.8769 41.3605L50.4114 41.685V33.1788C50.4077 25.1503 51.6043 18.9447 53.9719 14.7409ZM177.841 12.6046H178.129L178.158 12.6119C178.818 12.6239 179.474 12.5048 180.089 12.2613C180.703 12.0179 181.263 11.655 181.737 11.1936C182.203 10.7104 182.57 10.1396 182.816 9.5139C183.062 8.88819 183.182 8.21994 183.17 7.54753C183.17 5.37815 181.129 3.36555 178.805 3.24523H178.623C177.335 3.29674 176.12 3.8563 175.241 4.80208C174.293 5.71654 173.737 6.96554 173.692 8.28403C173.695 10.8581 175.245 12.4733 177.841 12.6046ZM211.374 88.923C210.694 88.923 209.999 88.8975 209.315 88.8611C206.787 88.7208 204.29 88.2363 201.892 87.4209L201.671 87.3443V67.7324L202.136 68.1298C205.98 71.4112 210.865 73.2342 216.658 73.5405C217.073 73.5624 217.491 73.5733 217.902 73.577H218.022C226.023 73.577 233.392 69.8544 238.774 63.0946C244.404 55.9995 247.503 46.137 247.503 35.3229V26.8386C246.852 28.5165 246.067 30.1393 245.157 31.6915C242.706 35.8115 239.862 38.0538 236.931 38.1741H236.701C235.199 38.0975 231.526 37.197 229.937 30.5175L229.733 29.657L229.369 30.4628C227.707 34.2692 225.703 37.4412 223.576 39.6289C221.706 41.554 219.852 42.6149 218.35 42.6149H218.164C215.407 42.4728 213.622 39.9461 213.622 36.1797V20.3815C213.622 18.9049 213.367 18.3434 212.68 18.3069C211.803 18.3069 209.679 19.8419 205.464 30.1054L205.442 30.1601V44.7442L197.532 46.6401V24.3265C197.532 22.1754 196.961 21.8509 196.343 21.8217C194.888 21.8217 193.575 25.8104 191.567 32.3951L191.538 32.4827C188.905 41.1274 185.624 51.8831 180.064 51.8868H179.835C177.34 51.7555 175.568 50.0273 174.979 47.1469L174.845 46.487L174.452 47.0303C172.512 49.6375 170.288 52.0197 167.822 54.1327C166.425 55.3104 165.098 55.9047 163.883 55.9047C161.374 55.9047 160.057 53.2868 160.046 53.2613L154.209 42.3962L153.943 42.5566C153.103 43.0707 152.259 43.5447 151.437 43.9676L151.259 44.0588V57.9538L143.338 59.8752V46.9756L142.974 47.0959C141.03 47.7149 139.057 48.2357 137.061 48.6564L136.752 48.7111V49.0757C135.886 57.3449 131.147 65.6906 123.76 65.6906H123.713H123.237C118.967 65.4682 115.807 63.0363 114.097 58.6574L113.846 58.0121L113.555 58.6392C110.922 64.2905 106.438 70.8898 102.466 70.8898H102.284C99.5277 70.7476 97.7456 68.2246 97.7456 64.4619V48.6673C97.7456 46.8006 97.2728 46.5928 96.8 46.5928C96.1708 46.5928 94.0105 47.4641 89.4825 58.6611L89.4607 58.7158V73.0155L81.554 74.9041V52.5941C81.554 51.4493 81.4122 50.5159 80.6193 50.5159C78.0298 50.5159 73.2655 62.6754 73.2655 62.6754V76.9568L65.3588 78.8418V55.9047C65.3588 54.7343 65.2133 53.8192 64.4132 53.8192C63.7222 53.8192 62.0965 54.8182 58.9942 61.505L58.8414 61.8368L58.5177 61.5597L56.4993 59.4523L56.5793 59.2918C58.7614 54.9859 64.2859 45.0177 68.8321 45.0177H68.9812C71.7416 45.1635 73.2036 47.249 73.2036 51.0518V55.0041C73.2017 55.013 73.2031 55.0224 73.2076 55.0303C73.2122 55.0382 73.2195 55.0441 73.2282 55.0468C73.2369 55.0496 73.2463 55.049 73.2545 55.0451C73.2579 55.0435 73.2611 55.0414 73.2638 55.0388C73.2677 55.0353 73.2707 55.0309 73.2727 55.026C74.0292 53.6478 80.7175 41.6961 85.0418 41.6961C86.6712 41.6961 89.4061 42.48 89.4061 47.7413V51.2013C89.407 51.2034 89.4081 51.2054 89.4094 51.2072C89.4111 51.2095 89.4131 51.2114 89.4155 51.213C89.4173 51.2143 89.4194 51.2153 89.4215 51.216C89.4241 51.2169 89.4269 51.2174 89.4298 51.2174C89.4348 51.2174 89.4398 51.2158 89.444 51.213C89.4447 51.2126 89.4453 51.2121 89.4459 51.2116C89.4464 51.2112 89.4469 51.2107 89.4474 51.2102C89.45 51.2077 89.4521 51.2047 89.4534 51.2013C91.1628 47.8397 96.6727 37.7694 101.241 37.7694C102.866 37.7694 105.605 38.5533 105.605 43.7999V59.795C105.605 60.7284 106.11 61.7456 107.06 61.793C108.151 61.793 110.395 59.0913 112.748 53.1592L112.773 53.0936V53.0207C112.658 51.9307 112.601 50.8354 112.602 49.7393C112.602 45.321 113.921 41.0037 116.388 37.3428C118.963 33.6384 122.4 31.5967 126.074 31.5967H126.121H126.601C131.187 31.8373 134.522 34.6411 136.002 39.494C136.469 40.9357 136.745 42.4323 136.824 43.9457V44.2739L137.148 44.2265C139.155 43.9216 141.143 43.4992 143.102 42.9613L143.316 42.903V2.92072L151.237 0.733104V39.8403L151.677 39.5887C153.542 38.5695 155.225 37.2461 156.656 35.6729C160.915 30.8274 162.057 26.2662 160.144 21.7305L160.057 21.5191L166.694 18.0481L166.8 18.2996C167.793 20.7315 168.164 25.2271 165.952 29.8685C164.639 32.5265 162.939 34.9741 160.908 37.1313L160.759 37.2881L160.864 37.4777C161.566 38.7246 164.552 43.7707 165.592 45.3677C166.087 46.1261 166.793 46.9975 167.858 47.0048C168.786 47.0048 169.84 46.3703 171.175 45.014C172.173 43.9958 174.497 40.5332 174.718 40.2031L174.732 40.183V19.7653L182.624 17.8475V39.2898C182.624 42.3233 182.988 42.9358 183.581 42.9832C184.672 42.9832 185.745 40.1794 187.708 33.8937L187.712 33.8811C190.407 25.2921 194.095 13.5379 201.081 13.5379H201.409C204.173 13.6838 205.431 16.7428 205.431 19.5283V22.6311C205.433 22.6375 205.438 22.6431 205.443 22.6471C205.449 22.651 205.455 22.6531 205.462 22.6531C205.469 22.6531 205.476 22.651 205.481 22.6471C205.483 22.6455 205.485 22.6436 205.487 22.6415C205.49 22.6385 205.492 22.6349 205.493 22.6311C207.202 19.2877 212.581 9.50543 217.131 9.50543C218.76 9.50543 221.495 10.2893 221.495 15.5469V31.5383C221.495 32.4681 222.008 33.4817 222.95 33.5364C224.194 33.5364 226.794 30.0398 229.133 23.5681L229.151 23.5171V23.1525C229.151 20.1518 230.191 15.2042 232.519 10.9091C234.294 7.62773 237.385 3.7119 242.015 3.7119H242.055H242.451C244.114 3.79142 245.703 4.42533 246.965 5.51304L247.452 5.93233V2.07119L255.09 0.219013L255.108 37.2407C255.108 51.7263 250.685 64.9176 242.637 74.3864C234.672 83.7603 223.634 88.923 211.563 88.923H211.374ZM125.415 59.0731H125.612C126.896 59.0731 128.11 58.4642 129.125 57.3084L129.238 57.1808L129.296 57.1115C130.554 55.6094 131.478 53.2759 132.002 50.3627L132.074 49.9763L131.682 50.0164C131.608 50.0164 131.539 50.0222 131.472 50.0279C131.409 50.0331 131.349 50.0382 131.289 50.0382C131.165 50.0382 131.107 50.0382 130.991 50.02C130.291 49.964 129.621 49.714 129.055 49.2981C128.489 48.8821 128.05 48.3166 127.787 47.6647C126.801 45.1125 128.536 42.779 130.911 42.779H131.103C131.364 42.7918 131.623 42.8334 131.874 42.903L132.304 43.0197L132.242 42.5785C132.1 41.4643 131.818 40.3726 131.402 39.3299C131.402 39.2825 130.111 35.7932 127.136 35.7932H126.859C124.848 35.7932 123.102 37.2261 121.815 39.8841C120.749 42.1152 120.131 44.5347 119.996 47.0048C119.787 49.5303 120.044 52.0729 120.756 54.5046C121.309 56.3276 122.157 57.6366 123.269 58.3694L123.35 58.4241L123.477 58.5007C124.001 58.8249 124.597 59.014 125.212 59.0512H125.288H125.423L125.415 59.0731ZM243.444 8.22203C241.597 8.22203 239.862 9.60752 238.556 12.1269C237.251 14.6463 236.574 17.8439 236.574 21.2711C236.574 23.539 236.963 28.8293 240.517 29.0153H240.651C242.695 29.0153 245.565 26.4084 247.47 19.0981V19.058V11.766V11.7222C246.743 9.45438 245.495 8.30589 243.648 8.21109H243.455L243.444 8.22203ZM263 2.50508C262.996 0.984684 261.803 0.0622422 260.265 0.426844L260.251 0.430488C259.488 0.616742 258.807 1.04508 258.307 1.65158C257.808 2.25808 257.517 3.01022 257.479 3.79577C257.479 5.34897 258.708 6.26048 260.254 5.89587C261.018 5.70851 261.7 5.27569 262.196 4.66347C262.692 4.05124 262.974 3.29322 263 2.50508ZM258.682 1.91636C259.076 1.42033 259.62 1.06638 260.232 0.908116L260.218 0.904472C261.451 0.623729 262.367 1.41127 262.367 2.66186C262.361 3.28924 262.149 3.89706 261.763 4.39089C261.376 4.88472 260.839 5.2369 260.232 5.39272C259.97 5.47589 259.692 5.49327 259.421 5.44334C259.151 5.39341 258.897 5.2777 258.681 5.10636C258.466 4.93502 258.296 4.71328 258.186 4.46062C258.076 4.20796 258.029 3.93209 258.05 3.65722C258.067 3.02351 258.288 2.41239 258.682 1.91636ZM259.435 4.80917C259.474 4.81812 259.514 4.81818 259.552 4.80936L259.534 4.80207C259.592 4.78826 259.645 4.75528 259.682 4.70838C259.72 4.66148 259.741 4.60334 259.741 4.5432V3.56242L260.105 3.48221C260.494 3.38741 260.68 3.48221 260.752 3.79577C260.796 3.98172 260.836 4.13849 260.876 4.25881C260.898 4.32005 260.941 4.37092 260.999 4.40131C261.056 4.4317 261.123 4.4394 261.185 4.42288H261.218C261.253 4.41499 261.286 4.39987 261.315 4.37851C261.344 4.35714 261.368 4.32998 261.385 4.29877C261.403 4.26755 261.414 4.23297 261.418 4.19721C261.422 4.16146 261.418 4.12532 261.407 4.0911C261.378 3.99995 261.345 3.87234 261.309 3.70462C261.214 3.34366 261.087 3.14678 260.851 3.11032V3.0775C261.002 3.00281 261.131 2.89053 261.227 2.75138C261.322 2.61223 261.381 2.45085 261.396 2.28267C261.404 2.17464 261.381 2.06661 261.331 1.97066C261.281 1.87471 261.205 1.79464 261.112 1.73941C260.829 1.61846 260.51 1.61064 260.221 1.71753C259.882 1.79384 259.551 1.9025 259.232 2.04203V4.55049C259.232 4.59017 259.24 4.62943 259.257 4.66532C259.274 4.70121 259.299 4.73281 259.33 4.75772C259.36 4.78264 259.396 4.80023 259.435 4.80917ZM260.101 3.06657L259.738 3.15042L259.734 2.26079C259.869 2.20705 260.007 2.16437 260.149 2.13318C260.643 2.02015 260.829 2.13318 260.829 2.45403C260.829 2.77488 260.465 2.97906 260.101 3.06657Z" fill="#E02124"/>
</svg>
